ISO-10303-21;
HEADER;
/* Generated by software containing ST-Developer
 * from STEP Tools, Inc. (www.steptools.com) 
 */
/* OPTION: using custom renumber hook */

FILE_DESCRIPTION(
/* description */ ('STEP AP242 Edition 2',
'CAx-IF Rec.Pracs.---Representation and Presentation of Product Manufa
cturing Information (PMI)---4.0---2014-10-13',
'CAx-IF Rec.Pracs.---3D Tessellated Geometry---0.4---2014-09-14','2;1',
'CAx-IF Rec.Pracs.---User Defined Attributes---1.5---2016-08-15'),
/* implementation_level */ '2;1');

FILE_NAME(
/* name */ 'Wheatpad - Part 107',
/* time_stamp */ '2026-07-03T20:16:33Z',
/* author */ (''),
/* organization */ (''),
/* preprocessor_version */ 'ST-DEVELOPER v20',
/* originating_system */ 'ONSHAPE BY PTC INC, 1.217',
/* authorisation */ '  ');

FILE_SCHEMA (('AP242_MANAGED_MODEL_BASED_3D_ENGINEERING_MIM_LF { 1 0 10303 442 3 1 4 }'));
ENDSEC;

DATA;
#10=SHAPE_REPRESENTATION_RELATIONSHIP('','',#1037,#11);
#11=ADVANCED_BREP_SHAPE_REPRESENTATION('',(#1035),#1763);
#12=CIRCLE('',#1041,0.0050038);
#13=CIRCLE('',#1042,0.0050038);
#14=CIRCLE('',#1045,0.0050038);
#15=CIRCLE('',#1046,0.0050038);
#16=CIRCLE('',#1049,0.0050038);
#17=CIRCLE('',#1050,0.0050038);
#18=CIRCLE('',#1053,0.0050038);
#19=CIRCLE('',#1054,0.0050038);
#20=CIRCLE('',#1058,0.001);
#21=CIRCLE('',#1059,0.001);
#22=CIRCLE('',#1062,0.001);
#23=CIRCLE('',#1063,0.001);
#24=CIRCLE('',#1065,0.0009906);
#25=CIRCLE('',#1066,0.0009906);
#26=CIRCLE('',#1069,0.0009906);
#27=CIRCLE('',#1070,0.0009906);
#28=CIRCLE('',#1073,0.000990599999999988);
#29=CIRCLE('',#1074,0.000990599999999988);
#30=CIRCLE('',#1077,0.0009906);
#31=CIRCLE('',#1078,0.0009906);
#32=CIRCLE('',#1080,0.0009906);
#33=CIRCLE('',#1081,0.0009906);
#34=CIRCLE('',#1083,0.001);
#35=CIRCLE('',#1084,0.001);
#36=CIRCLE('',#1087,0.001);
#37=CIRCLE('',#1088,0.001);
#38=CIRCLE('',#1090,0.0009906);
#39=CIRCLE('',#1091,0.0009906);
#40=CIRCLE('',#1093,0.001);
#41=CIRCLE('',#1094,0.001);
#42=CIRCLE('',#1097,0.001);
#43=CIRCLE('',#1098,0.001);
#44=CIRCLE('',#1100,0.0009906);
#45=CIRCLE('',#1101,0.0009906);
#46=CIRCLE('',#1103,0.001);
#47=CIRCLE('',#1104,0.001);
#48=CIRCLE('',#1107,0.001);
#49=CIRCLE('',#1108,0.001);
#50=CIRCLE('',#1110,0.0009906);
#51=CIRCLE('',#1111,0.0009906);
#52=CIRCLE('',#1113,0.001);
#53=CIRCLE('',#1114,0.001);
#54=CIRCLE('',#1118,0.00127);
#55=CIRCLE('',#1119,0.00127);
#56=CIRCLE('',#1122,0.00127);
#57=CIRCLE('',#1123,0.00127);
#58=CIRCLE('',#1126,0.00127);
#59=CIRCLE('',#1127,0.00127);
#60=CIRCLE('',#1130,0.00175);
#61=CIRCLE('',#1131,0.00175);
#62=CIRCLE('',#1133,0.00175);
#63=CIRCLE('',#1134,0.00175);
#64=CIRCLE('',#1136,0.00175);
#65=CIRCLE('',#1137,0.00175);
#66=CIRCLE('',#1139,0.00175);
#67=CIRCLE('',#1140,0.00175);
#68=CIRCLE('',#1143,0.001);
#69=CIRCLE('',#1144,0.001);
#70=CIRCLE('',#1146,0.00127);
#71=CIRCLE('',#1147,0.00127);
#72=CYLINDRICAL_SURFACE('',#1040,0.0050038);
#73=CYLINDRICAL_SURFACE('',#1044,0.0050038);
#74=CYLINDRICAL_SURFACE('',#1048,0.0050038);
#75=CYLINDRICAL_SURFACE('',#1052,0.0050038);
#76=CYLINDRICAL_SURFACE('',#1057,0.001);
#77=CYLINDRICAL_SURFACE('',#1061,0.001);
#78=CYLINDRICAL_SURFACE('',#1064,0.0009906);
#79=CYLINDRICAL_SURFACE('',#1068,0.0009906);
#80=CYLINDRICAL_SURFACE('',#1072,0.000990599999999988);
#81=CYLINDRICAL_SURFACE('',#1076,0.0009906);
#82=CYLINDRICAL_SURFACE('',#1079,0.0009906);
#83=CYLINDRICAL_SURFACE('',#1082,0.001);
#84=CYLINDRICAL_SURFACE('',#1086,0.001);
#85=CYLINDRICAL_SURFACE('',#1089,0.0009906);
#86=CYLINDRICAL_SURFACE('',#1092,0.001);
#87=CYLINDRICAL_SURFACE('',#1096,0.001);
#88=CYLINDRICAL_SURFACE('',#1099,0.0009906);
#89=CYLINDRICAL_SURFACE('',#1102,0.001);
#90=CYLINDRICAL_SURFACE('',#1106,0.001);
#91=CYLINDRICAL_SURFACE('',#1109,0.0009906);
#92=CYLINDRICAL_SURFACE('',#1112,0.001);
#93=CYLINDRICAL_SURFACE('',#1117,0.00127);
#94=CYLINDRICAL_SURFACE('',#1121,0.00127);
#95=CYLINDRICAL_SURFACE('',#1125,0.00127);
#96=CYLINDRICAL_SURFACE('',#1129,0.00175);
#97=CYLINDRICAL_SURFACE('',#1132,0.00175);
#98=CYLINDRICAL_SURFACE('',#1135,0.00175);
#99=CYLINDRICAL_SURFACE('',#1138,0.00175);
#100=CYLINDRICAL_SURFACE('',#1142,0.001);
#101=CYLINDRICAL_SURFACE('',#1145,0.00127);
#102=ORIENTED_EDGE('',*,*,#394,.T.);
#103=ORIENTED_EDGE('',*,*,#395,.F.);
#104=ORIENTED_EDGE('',*,*,#396,.F.);
#105=ORIENTED_EDGE('',*,*,#397,.T.);
#106=ORIENTED_EDGE('',*,*,#398,.T.);
#107=ORIENTED_EDGE('',*,*,#399,.F.);
#108=ORIENTED_EDGE('',*,*,#400,.F.);
#109=ORIENTED_EDGE('',*,*,#395,.T.);
#110=ORIENTED_EDGE('',*,*,#401,.T.);
#111=ORIENTED_EDGE('',*,*,#402,.F.);
#112=ORIENTED_EDGE('',*,*,#403,.F.);
#113=ORIENTED_EDGE('',*,*,#399,.T.);
#114=ORIENTED_EDGE('',*,*,#404,.T.);
#115=ORIENTED_EDGE('',*,*,#405,.F.);
#116=ORIENTED_EDGE('',*,*,#406,.F.);
#117=ORIENTED_EDGE('',*,*,#402,.T.);
#118=ORIENTED_EDGE('',*,*,#407,.T.);
#119=ORIENTED_EDGE('',*,*,#408,.F.);
#120=ORIENTED_EDGE('',*,*,#409,.F.);
#121=ORIENTED_EDGE('',*,*,#405,.T.);
#122=ORIENTED_EDGE('',*,*,#410,.T.);
#123=ORIENTED_EDGE('',*,*,#411,.F.);
#124=ORIENTED_EDGE('',*,*,#412,.F.);
#125=ORIENTED_EDGE('',*,*,#408,.T.);
#126=ORIENTED_EDGE('',*,*,#413,.T.);
#127=ORIENTED_EDGE('',*,*,#414,.F.);
#128=ORIENTED_EDGE('',*,*,#415,.F.);
#129=ORIENTED_EDGE('',*,*,#411,.T.);
#130=ORIENTED_EDGE('',*,*,#416,.T.);
#131=ORIENTED_EDGE('',*,*,#417,.F.);
#132=ORIENTED_EDGE('',*,*,#418,.F.);
#133=ORIENTED_EDGE('',*,*,#414,.T.);
#134=ORIENTED_EDGE('',*,*,#419,.T.);
#135=ORIENTED_EDGE('',*,*,#420,.F.);
#136=ORIENTED_EDGE('',*,*,#421,.F.);
#137=ORIENTED_EDGE('',*,*,#417,.T.);
#138=ORIENTED_EDGE('',*,*,#422,.F.);
#139=ORIENTED_EDGE('',*,*,#423,.F.);
#140=ORIENTED_EDGE('',*,*,#424,.T.);
#141=ORIENTED_EDGE('',*,*,#420,.T.);
#142=ORIENTED_EDGE('',*,*,#425,.F.);
#143=ORIENTED_EDGE('',*,*,#426,.F.);
#144=ORIENTED_EDGE('',*,*,#427,.T.);
#145=ORIENTED_EDGE('',*,*,#423,.T.);
#146=ORIENTED_EDGE('',*,*,#428,.T.);
#147=ORIENTED_EDGE('',*,*,#429,.F.);
#148=ORIENTED_EDGE('',*,*,#430,.F.);
#149=ORIENTED_EDGE('',*,*,#426,.T.);
#150=ORIENTED_EDGE('',*,*,#431,.F.);
#151=ORIENTED_EDGE('',*,*,#432,.F.);
#152=ORIENTED_EDGE('',*,*,#433,.T.);
#153=ORIENTED_EDGE('',*,*,#429,.T.);
#154=ORIENTED_EDGE('',*,*,#434,.F.);
#155=ORIENTED_EDGE('',*,*,#435,.F.);
#156=ORIENTED_EDGE('',*,*,#436,.T.);
#157=ORIENTED_EDGE('',*,*,#437,.T.);
#158=ORIENTED_EDGE('',*,*,#438,.T.);
#159=ORIENTED_EDGE('',*,*,#439,.F.);
#160=ORIENTED_EDGE('',*,*,#440,.F.);
#161=ORIENTED_EDGE('',*,*,#435,.T.);
#162=ORIENTED_EDGE('',*,*,#441,.F.);
#163=ORIENTED_EDGE('',*,*,#442,.F.);
#164=ORIENTED_EDGE('',*,*,#443,.T.);
#165=ORIENTED_EDGE('',*,*,#439,.T.);
#166=ORIENTED_EDGE('',*,*,#444,.T.);
#167=ORIENTED_EDGE('',*,*,#445,.F.);
#168=ORIENTED_EDGE('',*,*,#446,.F.);
#169=ORIENTED_EDGE('',*,*,#442,.T.);
#170=ORIENTED_EDGE('',*,*,#447,.F.);
#171=ORIENTED_EDGE('',*,*,#448,.F.);
#172=ORIENTED_EDGE('',*,*,#449,.T.);
#173=ORIENTED_EDGE('',*,*,#445,.T.);
#174=ORIENTED_EDGE('',*,*,#450,.F.);
#175=ORIENTED_EDGE('',*,*,#451,.F.);
#176=ORIENTED_EDGE('',*,*,#452,.T.);
#177=ORIENTED_EDGE('',*,*,#448,.T.);
#178=ORIENTED_EDGE('',*,*,#453,.F.);
#179=ORIENTED_EDGE('',*,*,#454,.F.);
#180=ORIENTED_EDGE('',*,*,#455,.T.);
#181=ORIENTED_EDGE('',*,*,#451,.T.);
#182=ORIENTED_EDGE('',*,*,#456,.F.);
#183=ORIENTED_EDGE('',*,*,#457,.F.);
#184=ORIENTED_EDGE('',*,*,#458,.T.);
#185=ORIENTED_EDGE('',*,*,#459,.T.);
#186=ORIENTED_EDGE('',*,*,#460,.F.);
#187=ORIENTED_EDGE('',*,*,#461,.F.);
#188=ORIENTED_EDGE('',*,*,#462,.T.);
#189=ORIENTED_EDGE('',*,*,#457,.T.);
#190=ORIENTED_EDGE('',*,*,#463,.F.);
#191=ORIENTED_EDGE('',*,*,#464,.F.);
#192=ORIENTED_EDGE('',*,*,#465,.T.);
#193=ORIENTED_EDGE('',*,*,#461,.T.);
#194=ORIENTED_EDGE('',*,*,#466,.F.);
#195=ORIENTED_EDGE('',*,*,#467,.F.);
#196=ORIENTED_EDGE('',*,*,#468,.T.);
#197=ORIENTED_EDGE('',*,*,#464,.T.);
#198=ORIENTED_EDGE('',*,*,#469,.F.);
#199=ORIENTED_EDGE('',*,*,#470,.F.);
#200=ORIENTED_EDGE('',*,*,#471,.T.);
#201=ORIENTED_EDGE('',*,*,#467,.T.);
#202=ORIENTED_EDGE('',*,*,#472,.F.);
#203=ORIENTED_EDGE('',*,*,#473,.F.);
#204=ORIENTED_EDGE('',*,*,#474,.T.);
#205=ORIENTED_EDGE('',*,*,#470,.T.);
#206=ORIENTED_EDGE('',*,*,#475,.F.);
#207=ORIENTED_EDGE('',*,*,#476,.F.);
#208=ORIENTED_EDGE('',*,*,#477,.T.);
#209=ORIENTED_EDGE('',*,*,#473,.T.);
#210=ORIENTED_EDGE('',*,*,#478,.F.);
#211=ORIENTED_EDGE('',*,*,#479,.F.);
#212=ORIENTED_EDGE('',*,*,#480,.T.);
#213=ORIENTED_EDGE('',*,*,#476,.T.);
#214=ORIENTED_EDGE('',*,*,#481,.F.);
#215=ORIENTED_EDGE('',*,*,#482,.F.);
#216=ORIENTED_EDGE('',*,*,#483,.T.);
#217=ORIENTED_EDGE('',*,*,#479,.T.);
#218=ORIENTED_EDGE('',*,*,#484,.F.);
#219=ORIENTED_EDGE('',*,*,#485,.F.);
#220=ORIENTED_EDGE('',*,*,#486,.T.);
#221=ORIENTED_EDGE('',*,*,#482,.T.);
#222=ORIENTED_EDGE('',*,*,#487,.F.);
#223=ORIENTED_EDGE('',*,*,#488,.F.);
#224=ORIENTED_EDGE('',*,*,#489,.T.);
#225=ORIENTED_EDGE('',*,*,#485,.T.);
#226=ORIENTED_EDGE('',*,*,#490,.F.);
#227=ORIENTED_EDGE('',*,*,#491,.F.);
#228=ORIENTED_EDGE('',*,*,#492,.T.);
#229=ORIENTED_EDGE('',*,*,#488,.T.);
#230=ORIENTED_EDGE('',*,*,#493,.F.);
#231=ORIENTED_EDGE('',*,*,#494,.F.);
#232=ORIENTED_EDGE('',*,*,#495,.T.);
#233=ORIENTED_EDGE('',*,*,#491,.T.);
#234=ORIENTED_EDGE('',*,*,#496,.F.);
#235=ORIENTED_EDGE('',*,*,#497,.F.);
#236=ORIENTED_EDGE('',*,*,#498,.T.);
#237=ORIENTED_EDGE('',*,*,#494,.T.);
#238=ORIENTED_EDGE('',*,*,#499,.F.);
#239=ORIENTED_EDGE('',*,*,#500,.F.);
#240=ORIENTED_EDGE('',*,*,#501,.T.);
#241=ORIENTED_EDGE('',*,*,#497,.T.);
#242=ORIENTED_EDGE('',*,*,#502,.F.);
#243=ORIENTED_EDGE('',*,*,#503,.F.);
#244=ORIENTED_EDGE('',*,*,#504,.T.);
#245=ORIENTED_EDGE('',*,*,#505,.T.);
#246=ORIENTED_EDGE('',*,*,#506,.F.);
#247=ORIENTED_EDGE('',*,*,#507,.F.);
#248=ORIENTED_EDGE('',*,*,#508,.T.);
#249=ORIENTED_EDGE('',*,*,#503,.T.);
#250=ORIENTED_EDGE('',*,*,#509,.F.);
#251=ORIENTED_EDGE('',*,*,#510,.F.);
#252=ORIENTED_EDGE('',*,*,#511,.T.);
#253=ORIENTED_EDGE('',*,*,#507,.T.);
#254=ORIENTED_EDGE('',*,*,#512,.F.);
#255=ORIENTED_EDGE('',*,*,#513,.F.);
#256=ORIENTED_EDGE('',*,*,#514,.T.);
#257=ORIENTED_EDGE('',*,*,#510,.T.);
#258=ORIENTED_EDGE('',*,*,#515,.T.);
#259=ORIENTED_EDGE('',*,*,#516,.F.);
#260=ORIENTED_EDGE('',*,*,#517,.F.);
#261=ORIENTED_EDGE('',*,*,#513,.T.);
#262=ORIENTED_EDGE('',*,*,#518,.F.);
#263=ORIENTED_EDGE('',*,*,#519,.F.);
#264=ORIENTED_EDGE('',*,*,#520,.T.);
#265=ORIENTED_EDGE('',*,*,#516,.T.);
#266=ORIENTED_EDGE('',*,*,#521,.T.);
#267=ORIENTED_EDGE('',*,*,#522,.F.);
#268=ORIENTED_EDGE('',*,*,#523,.F.);
#269=ORIENTED_EDGE('',*,*,#519,.T.);
#270=ORIENTED_EDGE('',*,*,#524,.T.);
#271=ORIENTED_EDGE('',*,*,#525,.F.);
#272=ORIENTED_EDGE('',*,*,#526,.T.);
#273=ORIENTED_EDGE('',*,*,#527,.F.);
#274=ORIENTED_EDGE('',*,*,#528,.T.);
#275=ORIENTED_EDGE('',*,*,#529,.F.);
#276=ORIENTED_EDGE('',*,*,#530,.T.);
#277=ORIENTED_EDGE('',*,*,#531,.F.);
#278=ORIENTED_EDGE('',*,*,#532,.F.);
#279=ORIENTED_EDGE('',*,*,#437,.F.);
#280=ORIENTED_EDGE('',*,*,#533,.T.);
#281=ORIENTED_EDGE('',*,*,#454,.T.);
#282=ORIENTED_EDGE('',*,*,#534,.F.);
#283=ORIENTED_EDGE('',*,*,#459,.F.);
#284=ORIENTED_EDGE('',*,*,#535,.T.);
#285=ORIENTED_EDGE('',*,*,#500,.T.);
#286=ORIENTED_EDGE('',*,*,#536,.F.);
#287=ORIENTED_EDGE('',*,*,#505,.F.);
#288=ORIENTED_EDGE('',*,*,#537,.T.);
#289=ORIENTED_EDGE('',*,*,#522,.T.);
#290=ORIENTED_EDGE('',*,*,#538,.T.);
#291=ORIENTED_EDGE('',*,*,#397,.F.);
#292=ORIENTED_EDGE('',*,*,#539,.F.);
#293=ORIENTED_EDGE('',*,*,#432,.T.);
#294=ORIENTED_EDGE('',*,*,#504,.F.);
#295=ORIENTED_EDGE('',*,*,#508,.F.);
#296=ORIENTED_EDGE('',*,*,#511,.F.);
#297=ORIENTED_EDGE('',*,*,#514,.F.);
#298=ORIENTED_EDGE('',*,*,#517,.T.);
#299=ORIENTED_EDGE('',*,*,#520,.F.);
#300=ORIENTED_EDGE('',*,*,#523,.T.);
#301=ORIENTED_EDGE('',*,*,#537,.F.);
#302=ORIENTED_EDGE('',*,*,#458,.F.);
#303=ORIENTED_EDGE('',*,*,#462,.F.);
#304=ORIENTED_EDGE('',*,*,#465,.F.);
#305=ORIENTED_EDGE('',*,*,#468,.F.);
#306=ORIENTED_EDGE('',*,*,#471,.F.);
#307=ORIENTED_EDGE('',*,*,#474,.F.);
#308=ORIENTED_EDGE('',*,*,#477,.F.);
#309=ORIENTED_EDGE('',*,*,#480,.F.);
#310=ORIENTED_EDGE('',*,*,#483,.F.);
#311=ORIENTED_EDGE('',*,*,#486,.F.);
#312=ORIENTED_EDGE('',*,*,#489,.F.);
#313=ORIENTED_EDGE('',*,*,#492,.F.);
#314=ORIENTED_EDGE('',*,*,#495,.F.);
#315=ORIENTED_EDGE('',*,*,#498,.F.);
#316=ORIENTED_EDGE('',*,*,#501,.F.);
#317=ORIENTED_EDGE('',*,*,#535,.F.);
#318=ORIENTED_EDGE('',*,*,#436,.F.);
#319=ORIENTED_EDGE('',*,*,#440,.T.);
#320=ORIENTED_EDGE('',*,*,#443,.F.);
#321=ORIENTED_EDGE('',*,*,#446,.T.);
#322=ORIENTED_EDGE('',*,*,#449,.F.);
#323=ORIENTED_EDGE('',*,*,#452,.F.);
#324=ORIENTED_EDGE('',*,*,#455,.F.);
#325=ORIENTED_EDGE('',*,*,#533,.F.);
#326=ORIENTED_EDGE('',*,*,#530,.F.);
#327=ORIENTED_EDGE('',*,*,#528,.F.);
#328=ORIENTED_EDGE('',*,*,#526,.F.);
#329=ORIENTED_EDGE('',*,*,#524,.F.);
#330=ORIENTED_EDGE('',*,*,#396,.T.);
#331=ORIENTED_EDGE('',*,*,#400,.T.);
#332=ORIENTED_EDGE('',*,*,#403,.T.);
#333=ORIENTED_EDGE('',*,*,#406,.T.);
#334=ORIENTED_EDGE('',*,*,#409,.T.);
#335=ORIENTED_EDGE('',*,*,#412,.T.);
#336=ORIENTED_EDGE('',*,*,#415,.T.);
#337=ORIENTED_EDGE('',*,*,#418,.T.);
#338=ORIENTED_EDGE('',*,*,#421,.T.);
#339=ORIENTED_EDGE('',*,*,#424,.F.);
#340=ORIENTED_EDGE('',*,*,#427,.F.);
#341=ORIENTED_EDGE('',*,*,#430,.T.);
#342=ORIENTED_EDGE('',*,*,#433,.F.);
#343=ORIENTED_EDGE('',*,*,#539,.T.);
#344=ORIENTED_EDGE('',*,*,#502,.T.);
#345=ORIENTED_EDGE('',*,*,#536,.T.);
#346=ORIENTED_EDGE('',*,*,#521,.F.);
#347=ORIENTED_EDGE('',*,*,#518,.T.);
#348=ORIENTED_EDGE('',*,*,#515,.F.);
#349=ORIENTED_EDGE('',*,*,#512,.T.);
#350=ORIENTED_EDGE('',*,*,#509,.T.);
#351=ORIENTED_EDGE('',*,*,#506,.T.);
#352=ORIENTED_EDGE('',*,*,#456,.T.);
#353=ORIENTED_EDGE('',*,*,#534,.T.);
#354=ORIENTED_EDGE('',*,*,#499,.T.);
#355=ORIENTED_EDGE('',*,*,#496,.T.);
#356=ORIENTED_EDGE('',*,*,#493,.T.);
#357=ORIENTED_EDGE('',*,*,#490,.T.);
#358=ORIENTED_EDGE('',*,*,#487,.T.);
#359=ORIENTED_EDGE('',*,*,#484,.T.);
#360=ORIENTED_EDGE('',*,*,#481,.T.);
#361=ORIENTED_EDGE('',*,*,#478,.T.);
#362=ORIENTED_EDGE('',*,*,#475,.T.);
#363=ORIENTED_EDGE('',*,*,#472,.T.);
#364=ORIENTED_EDGE('',*,*,#469,.T.);
#365=ORIENTED_EDGE('',*,*,#466,.T.);
#366=ORIENTED_EDGE('',*,*,#463,.T.);
#367=ORIENTED_EDGE('',*,*,#460,.T.);
#368=ORIENTED_EDGE('',*,*,#434,.T.);
#369=ORIENTED_EDGE('',*,*,#532,.T.);
#370=ORIENTED_EDGE('',*,*,#453,.T.);
#371=ORIENTED_EDGE('',*,*,#450,.T.);
#372=ORIENTED_EDGE('',*,*,#447,.T.);
#373=ORIENTED_EDGE('',*,*,#444,.F.);
#374=ORIENTED_EDGE('',*,*,#441,.T.);
#375=ORIENTED_EDGE('',*,*,#438,.F.);
#376=ORIENTED_EDGE('',*,*,#531,.T.);
#377=ORIENTED_EDGE('',*,*,#529,.T.);
#378=ORIENTED_EDGE('',*,*,#527,.T.);
#379=ORIENTED_EDGE('',*,*,#525,.T.);
#380=ORIENTED_EDGE('',*,*,#394,.F.);
#381=ORIENTED_EDGE('',*,*,#538,.F.);
#382=ORIENTED_EDGE('',*,*,#431,.T.);
#383=ORIENTED_EDGE('',*,*,#428,.F.);
#384=ORIENTED_EDGE('',*,*,#425,.T.);
#385=ORIENTED_EDGE('',*,*,#422,.T.);
#386=ORIENTED_EDGE('',*,*,#419,.F.);
#387=ORIENTED_EDGE('',*,*,#416,.F.);
#388=ORIENTED_EDGE('',*,*,#413,.F.);
#389=ORIENTED_EDGE('',*,*,#410,.F.);
#390=ORIENTED_EDGE('',*,*,#407,.F.);
#391=ORIENTED_EDGE('',*,*,#404,.F.);
#392=ORIENTED_EDGE('',*,*,#401,.F.);
#393=ORIENTED_EDGE('',*,*,#398,.F.);
#394=EDGE_CURVE('',#540,#541,#640,.T.);
#395=EDGE_CURVE('',#542,#541,#641,.T.);
#396=EDGE_CURVE('',#543,#542,#642,.T.);
#397=EDGE_CURVE('',#543,#540,#643,.T.);
#398=EDGE_CURVE('',#541,#544,#12,.T.);
#399=EDGE_CURVE('',#545,#544,#644,.T.);
#400=EDGE_CURVE('',#542,#545,#13,.T.);
#401=EDGE_CURVE('',#544,#546,#645,.T.);
#402=EDGE_CURVE('',#547,#546,#646,.T.);
#403=EDGE_CURVE('',#545,#547,#647,.T.);
#404=EDGE_CURVE('',#546,#548,#14,.T.);
#405=EDGE_CURVE('',#549,#548,#648,.T.);
#406=EDGE_CURVE('',#547,#549,#15,.T.);
#407=EDGE_CURVE('',#548,#550,#649,.T.);
#408=EDGE_CURVE('',#551,#550,#650,.T.);
#409=EDGE_CURVE('',#549,#551,#651,.T.);
#410=EDGE_CURVE('',#550,#552,#16,.T.);
#411=EDGE_CURVE('',#553,#552,#652,.T.);
#412=EDGE_CURVE('',#551,#553,#17,.T.);
#413=EDGE_CURVE('',#552,#554,#653,.T.);
#414=EDGE_CURVE('',#555,#554,#654,.T.);
#415=EDGE_CURVE('',#553,#555,#655,.T.);
#416=EDGE_CURVE('',#554,#556,#18,.T.);
#417=EDGE_CURVE('',#557,#556,#656,.T.);
#418=EDGE_CURVE('',#555,#557,#19,.T.);
#419=EDGE_CURVE('',#556,#558,#657,.T.);
#420=EDGE_CURVE('',#559,#558,#658,.T.);
#421=EDGE_CURVE('',#557,#559,#659,.T.);
#422=EDGE_CURVE('',#560,#558,#660,.T.);
#423=EDGE_CURVE('',#561,#560,#661,.T.);
#424=EDGE_CURVE('',#561,#559,#662,.T.);
#425=EDGE_CURVE('',#562,#560,#20,.T.);
#426=EDGE_CURVE('',#563,#562,#663,.T.);
#427=EDGE_CURVE('',#563,#561,#21,.T.);
#428=EDGE_CURVE('',#562,#564,#664,.T.);
#429=EDGE_CURVE('',#565,#564,#665,.T.);
#430=EDGE_CURVE('',#563,#565,#666,.T.);
#431=EDGE_CURVE('',#566,#564,#22,.T.);
#432=EDGE_CURVE('',#567,#566,#667,.T.);
#433=EDGE_CURVE('',#567,#565,#23,.T.);
#434=EDGE_CURVE('',#568,#569,#24,.T.);
#435=EDGE_CURVE('',#570,#568,#668,.T.);
#436=EDGE_CURVE('',#570,#571,#25,.T.);
#437=EDGE_CURVE('',#571,#569,#669,.T.);
#438=EDGE_CURVE('',#568,#572,#670,.T.);
#439=EDGE_CURVE('',#573,#572,#671,.T.);
#440=EDGE_CURVE('',#570,#573,#672,.T.);
#441=EDGE_CURVE('',#574,#572,#26,.T.);
#442=EDGE_CURVE('',#575,#574,#673,.T.);
#443=EDGE_CURVE('',#575,#573,#27,.T.);
#444=EDGE_CURVE('',#574,#576,#674,.T.);
#445=EDGE_CURVE('',#577,#576,#675,.T.);
#446=EDGE_CURVE('',#575,#577,#676,.T.);
#447=EDGE_CURVE('',#578,#576,#28,.T.);
#448=EDGE_CURVE('',#579,#578,#677,.T.);
#449=EDGE_CURVE('',#579,#577,#29,.T.);
#450=EDGE_CURVE('',#580,#578,#678,.T.);
#451=EDGE_CURVE('',#581,#580,#679,.T.);
#452=EDGE_CURVE('',#581,#579,#680,.T.);
#453=EDGE_CURVE('',#582,#580,#30,.T.);
#454=EDGE_CURVE('',#583,#582,#681,.T.);
#455=EDGE_CURVE('',#583,#581,#31,.T.);
#456=EDGE_CURVE('',#584,#585,#32,.T.);
#457=EDGE_CURVE('',#586,#584,#682,.T.);
#458=EDGE_CURVE('',#586,#587,#33,.T.);
#459=EDGE_CURVE('',#587,#585,#683,.T.);
#460=EDGE_CURVE('',#588,#584,#34,.T.);
#461=EDGE_CURVE('',#589,#588,#684,.T.);
#462=EDGE_CURVE('',#589,#586,#35,.T.);
#463=EDGE_CURVE('',#590,#588,#685,.T.);
#464=EDGE_CURVE('',#591,#590,#686,.T.);
#465=EDGE_CURVE('',#591,#589,#687,.T.);
#466=EDGE_CURVE('',#592,#590,#36,.T.);
#467=EDGE_CURVE('',#593,#592,#688,.T.);
#468=EDGE_CURVE('',#593,#591,#37,.T.);
#469=EDGE_CURVE('',#594,#592,#38,.T.);
#470=EDGE_CURVE('',#595,#594,#689,.T.);
#471=EDGE_CURVE('',#595,#593,#39,.T.);
#472=EDGE_CURVE('',#596,#594,#40,.T.);
#473=EDGE_CURVE('',#597,#596,#690,.T.);
#474=EDGE_CURVE('',#597,#595,#41,.T.);
#475=EDGE_CURVE('',#598,#596,#691,.T.);
#476=EDGE_CURVE('',#599,#598,#692,.T.);
#477=EDGE_CURVE('',#599,#597,#693,.T.);
#478=EDGE_CURVE('',#600,#598,#42,.T.);
#479=EDGE_CURVE('',#601,#600,#694,.T.);
#480=EDGE_CURVE('',#601,#599,#43,.T.);
#481=EDGE_CURVE('',#602,#600,#44,.T.);
#482=EDGE_CURVE('',#603,#602,#695,.T.);
#483=EDGE_CURVE('',#603,#601,#45,.T.);
#484=EDGE_CURVE('',#604,#602,#46,.T.);
#485=EDGE_CURVE('',#605,#604,#696,.T.);
#486=EDGE_CURVE('',#605,#603,#47,.T.);
#487=EDGE_CURVE('',#606,#604,#697,.T.);
#488=EDGE_CURVE('',#607,#606,#698,.T.);
#489=EDGE_CURVE('',#607,#605,#699,.T.);
#490=EDGE_CURVE('',#608,#606,#48,.T.);
#491=EDGE_CURVE('',#609,#608,#700,.T.);
#492=EDGE_CURVE('',#609,#607,#49,.T.);
#493=EDGE_CURVE('',#610,#608,#50,.T.);
#494=EDGE_CURVE('',#611,#610,#701,.T.);
#495=EDGE_CURVE('',#611,#609,#51,.T.);
#496=EDGE_CURVE('',#612,#610,#52,.T.);
#497=EDGE_CURVE('',#613,#612,#702,.T.);
#498=EDGE_CURVE('',#613,#611,#53,.T.);
#499=EDGE_CURVE('',#614,#612,#703,.T.);
#500=EDGE_CURVE('',#615,#614,#704,.T.);
#501=EDGE_CURVE('',#615,#613,#705,.T.);
#502=EDGE_CURVE('',#616,#617,#706,.T.);
#503=EDGE_CURVE('',#618,#616,#707,.T.);
#504=EDGE_CURVE('',#618,#619,#708,.T.);
#505=EDGE_CURVE('',#619,#617,#709,.T.);
#506=EDGE_CURVE('',#620,#616,#54,.T.);
#507=EDGE_CURVE('',#621,#620,#710,.T.);
#508=EDGE_CURVE('',#621,#618,#55,.T.);
#509=EDGE_CURVE('',#622,#620,#711,.T.);
#510=EDGE_CURVE('',#623,#622,#712,.T.);
#511=EDGE_CURVE('',#623,#621,#713,.T.);
#512=EDGE_CURVE('',#624,#622,#56,.T.);
#513=EDGE_CURVE('',#625,#624,#714,.T.);
#514=EDGE_CURVE('',#625,#623,#57,.T.);
#515=EDGE_CURVE('',#624,#626,#715,.T.);
#516=EDGE_CURVE('',#627,#626,#716,.T.);
#517=EDGE_CURVE('',#625,#627,#717,.T.);
#518=EDGE_CURVE('',#628,#626,#58,.T.);
#519=EDGE_CURVE('',#629,#628,#718,.T.);
#520=EDGE_CURVE('',#629,#627,#59,.T.);
#521=EDGE_CURVE('',#628,#630,#719,.T.);
#522=EDGE_CURVE('',#631,#630,#720,.T.);
#523=EDGE_CURVE('',#629,#631,#721,.T.);
#524=EDGE_CURVE('',#632,#632,#60,.T.);
#525=EDGE_CURVE('',#633,#633,#61,.T.);
#526=EDGE_CURVE('',#634,#634,#62,.T.);
#527=EDGE_CURVE('',#635,#635,#63,.T.);
#528=EDGE_CURVE('',#636,#636,#64,.T.);
#529=EDGE_CURVE('',#637,#637,#65,.T.);
#530=EDGE_CURVE('',#638,#638,#66,.T.);
#531=EDGE_CURVE('',#639,#639,#67,.T.);
#532=EDGE_CURVE('',#569,#582,#722,.T.);
#533=EDGE_CURVE('',#571,#583,#723,.T.);
#534=EDGE_CURVE('',#585,#614,#68,.T.);
#535=EDGE_CURVE('',#587,#615,#69,.T.);
#536=EDGE_CURVE('',#617,#630,#70,.T.);
#537=EDGE_CURVE('',#619,#631,#71,.T.);
#538=EDGE_CURVE('',#566,#540,#724,.T.);
#539=EDGE_CURVE('',#567,#543,#725,.T.);
#540=VERTEX_POINT('',#1466);
#541=VERTEX_POINT('',#1467);
#542=VERTEX_POINT('',#1469);
#543=VERTEX_POINT('',#1471);
#544=VERTEX_POINT('',#1475);
#545=VERTEX_POINT('',#1477);
#546=VERTEX_POINT('',#1481);
#547=VERTEX_POINT('',#1483);
#548=VERTEX_POINT('',#1487);
#549=VERTEX_POINT('',#1489);
#550=VERTEX_POINT('',#1493);
#551=VERTEX_POINT('',#1495);
#552=VERTEX_POINT('',#1499);
#553=VERTEX_POINT('',#1501);
#554=VERTEX_POINT('',#1505);
#555=VERTEX_POINT('',#1507);
#556=VERTEX_POINT('',#1511);
#557=VERTEX_POINT('',#1513);
#558=VERTEX_POINT('',#1517);
#559=VERTEX_POINT('',#1519);
#560=VERTEX_POINT('',#1523);
#561=VERTEX_POINT('',#1525);
#562=VERTEX_POINT('',#1529);
#563=VERTEX_POINT('',#1531);
#564=VERTEX_POINT('',#1535);
#565=VERTEX_POINT('',#1537);
#566=VERTEX_POINT('',#1541);
#567=VERTEX_POINT('',#1543);
#568=VERTEX_POINT('',#1547);
#569=VERTEX_POINT('',#1548);
#570=VERTEX_POINT('',#1550);
#571=VERTEX_POINT('',#1552);
#572=VERTEX_POINT('',#1556);
#573=VERTEX_POINT('',#1558);
#574=VERTEX_POINT('',#1562);
#575=VERTEX_POINT('',#1564);
#576=VERTEX_POINT('',#1568);
#577=VERTEX_POINT('',#1570);
#578=VERTEX_POINT('',#1574);
#579=VERTEX_POINT('',#1576);
#580=VERTEX_POINT('',#1580);
#581=VERTEX_POINT('',#1582);
#582=VERTEX_POINT('',#1586);
#583=VERTEX_POINT('',#1588);
#584=VERTEX_POINT('',#1592);
#585=VERTEX_POINT('',#1593);
#586=VERTEX_POINT('',#1595);
#587=VERTEX_POINT('',#1597);
#588=VERTEX_POINT('',#1601);
#589=VERTEX_POINT('',#1603);
#590=VERTEX_POINT('',#1607);
#591=VERTEX_POINT('',#1609);
#592=VERTEX_POINT('',#1613);
#593=VERTEX_POINT('',#1615);
#594=VERTEX_POINT('',#1619);
#595=VERTEX_POINT('',#1621);
#596=VERTEX_POINT('',#1625);
#597=VERTEX_POINT('',#1627);
#598=VERTEX_POINT('',#1631);
#599=VERTEX_POINT('',#1633);
#600=VERTEX_POINT('',#1637);
#601=VERTEX_POINT('',#1639);
#602=VERTEX_POINT('',#1643);
#603=VERTEX_POINT('',#1645);
#604=VERTEX_POINT('',#1649);
#605=VERTEX_POINT('',#1651);
#606=VERTEX_POINT('',#1655);
#607=VERTEX_POINT('',#1657);
#608=VERTEX_POINT('',#1661);
#609=VERTEX_POINT('',#1663);
#610=VERTEX_POINT('',#1667);
#611=VERTEX_POINT('',#1669);
#612=VERTEX_POINT('',#1673);
#613=VERTEX_POINT('',#1675);
#614=VERTEX_POINT('',#1679);
#615=VERTEX_POINT('',#1681);
#616=VERTEX_POINT('',#1685);
#617=VERTEX_POINT('',#1686);
#618=VERTEX_POINT('',#1688);
#619=VERTEX_POINT('',#1690);
#620=VERTEX_POINT('',#1694);
#621=VERTEX_POINT('',#1696);
#622=VERTEX_POINT('',#1700);
#623=VERTEX_POINT('',#1702);
#624=VERTEX_POINT('',#1706);
#625=VERTEX_POINT('',#1708);
#626=VERTEX_POINT('',#1712);
#627=VERTEX_POINT('',#1714);
#628=VERTEX_POINT('',#1718);
#629=VERTEX_POINT('',#1720);
#630=VERTEX_POINT('',#1724);
#631=VERTEX_POINT('',#1726);
#632=VERTEX_POINT('',#1730);
#633=VERTEX_POINT('',#1732);
#634=VERTEX_POINT('',#1735);
#635=VERTEX_POINT('',#1737);
#636=VERTEX_POINT('',#1740);
#637=VERTEX_POINT('',#1742);
#638=VERTEX_POINT('',#1745);
#639=VERTEX_POINT('',#1747);
#640=LINE('',#1465,#726);
#641=LINE('',#1468,#727);
#642=LINE('',#1470,#728);
#643=LINE('',#1472,#729);
#644=LINE('',#1476,#730);
#645=LINE('',#1480,#731);
#646=LINE('',#1482,#732);
#647=LINE('',#1484,#733);
#648=LINE('',#1488,#734);
#649=LINE('',#1492,#735);
#650=LINE('',#1494,#736);
#651=LINE('',#1496,#737);
#652=LINE('',#1500,#738);
#653=LINE('',#1504,#739);
#654=LINE('',#1506,#740);
#655=LINE('',#1508,#741);
#656=LINE('',#1512,#742);
#657=LINE('',#1516,#743);
#658=LINE('',#1518,#744);
#659=LINE('',#1520,#745);
#660=LINE('',#1522,#746);
#661=LINE('',#1524,#747);
#662=LINE('',#1526,#748);
#663=LINE('',#1530,#749);
#664=LINE('',#1534,#750);
#665=LINE('',#1536,#751);
#666=LINE('',#1538,#752);
#667=LINE('',#1542,#753);
#668=LINE('',#1549,#754);
#669=LINE('',#1553,#755);
#670=LINE('',#1555,#756);
#671=LINE('',#1557,#757);
#672=LINE('',#1559,#758);
#673=LINE('',#1563,#759);
#674=LINE('',#1567,#760);
#675=LINE('',#1569,#761);
#676=LINE('',#1571,#762);
#677=LINE('',#1575,#763);
#678=LINE('',#1579,#764);
#679=LINE('',#1581,#765);
#680=LINE('',#1583,#766);
#681=LINE('',#1587,#767);
#682=LINE('',#1594,#768);
#683=LINE('',#1598,#769);
#684=LINE('',#1602,#770);
#685=LINE('',#1606,#771);
#686=LINE('',#1608,#772);
#687=LINE('',#1610,#773);
#688=LINE('',#1614,#774);
#689=LINE('',#1620,#775);
#690=LINE('',#1626,#776);
#691=LINE('',#1630,#777);
#692=LINE('',#1632,#778);
#693=LINE('',#1634,#779);
#694=LINE('',#1638,#780);
#695=LINE('',#1644,#781);
#696=LINE('',#1650,#782);
#697=LINE('',#1654,#783);
#698=LINE('',#1656,#784);
#699=LINE('',#1658,#785);
#700=LINE('',#1662,#786);
#701=LINE('',#1668,#787);
#702=LINE('',#1674,#788);
#703=LINE('',#1678,#789);
#704=LINE('',#1680,#790);
#705=LINE('',#1682,#791);
#706=LINE('',#1684,#792);
#707=LINE('',#1687,#793);
#708=LINE('',#1689,#794);
#709=LINE('',#1691,#795);
#710=LINE('',#1695,#796);
#711=LINE('',#1699,#797);
#712=LINE('',#1701,#798);
#713=LINE('',#1703,#799);
#714=LINE('',#1707,#800);
#715=LINE('',#1711,#801);
#716=LINE('',#1713,#802);
#717=LINE('',#1715,#803);
#718=LINE('',#1719,#804);
#719=LINE('',#1723,#805);
#720=LINE('',#1725,#806);
#721=LINE('',#1727,#807);
#722=LINE('',#1749,#808);
#723=LINE('',#1750,#809);
#724=LINE('',#1758,#810);
#725=LINE('',#1759,#811);
#726=VECTOR('',#1155,1.);
#727=VECTOR('',#1156,1.);
#728=VECTOR('',#1157,1.);
#729=VECTOR('',#1158,1.);
#730=VECTOR('',#1163,1.);
#731=VECTOR('',#1168,1.);
#732=VECTOR('',#1169,1.);
#733=VECTOR('',#1170,1.);
#734=VECTOR('',#1175,1.);
#735=VECTOR('',#1180,1.);
#736=VECTOR('',#1181,1.);
#737=VECTOR('',#1182,1.);
#738=VECTOR('',#1187,1.);
#739=VECTOR('',#1192,1.);
#740=VECTOR('',#1193,1.);
#741=VECTOR('',#1194,1.);
#742=VECTOR('',#1199,1.);
#743=VECTOR('',#1204,1.);
#744=VECTOR('',#1205,1.);
#745=VECTOR('',#1206,1.);
#746=VECTOR('',#1209,1.);
#747=VECTOR('',#1210,1.);
#748=VECTOR('',#1211,1.);
#749=VECTOR('',#1216,1.);
#750=VECTOR('',#1221,1.);
#751=VECTOR('',#1222,1.);
#752=VECTOR('',#1223,1.);
#753=VECTOR('',#1228,1.);
#754=VECTOR('',#1235,1.);
#755=VECTOR('',#1238,1.);
#756=VECTOR('',#1241,1.);
#757=VECTOR('',#1242,1.);
#758=VECTOR('',#1243,1.);
#759=VECTOR('',#1248,1.);
#760=VECTOR('',#1253,1.);
#761=VECTOR('',#1254,1.);
#762=VECTOR('',#1255,1.);
#763=VECTOR('',#1260,1.);
#764=VECTOR('',#1265,1.);
#765=VECTOR('',#1266,1.);
#766=VECTOR('',#1267,1.);
#767=VECTOR('',#1272,1.);
#768=VECTOR('',#1279,1.);
#769=VECTOR('',#1282,1.);
#770=VECTOR('',#1287,1.);
#771=VECTOR('',#1292,1.);
#772=VECTOR('',#1293,1.);
#773=VECTOR('',#1294,1.);
#774=VECTOR('',#1299,1.);
#775=VECTOR('',#1306,1.);
#776=VECTOR('',#1313,1.);
#777=VECTOR('',#1318,1.);
#778=VECTOR('',#1319,1.);
#779=VECTOR('',#1320,1.);
#780=VECTOR('',#1325,1.);
#781=VECTOR('',#1332,1.);
#782=VECTOR('',#1339,1.);
#783=VECTOR('',#1344,1.);
#784=VECTOR('',#1345,1.);
#785=VECTOR('',#1346,1.);
#786=VECTOR('',#1351,1.);
#787=VECTOR('',#1358,1.);
#788=VECTOR('',#1365,1.);
#789=VECTOR('',#1370,1.);
#790=VECTOR('',#1371,1.);
#791=VECTOR('',#1372,1.);
#792=VECTOR('',#1375,1.);
#793=VECTOR('',#1376,1.);
#794=VECTOR('',#1377,1.);
#795=VECTOR('',#1378,1.);
#796=VECTOR('',#1383,1.);
#797=VECTOR('',#1388,1.);
#798=VECTOR('',#1389,1.);
#799=VECTOR('',#1390,1.);
#800=VECTOR('',#1395,1.);
#801=VECTOR('',#1400,1.);
#802=VECTOR('',#1401,1.);
#803=VECTOR('',#1402,1.);
#804=VECTOR('',#1407,1.);
#805=VECTOR('',#1412,1.);
#806=VECTOR('',#1413,1.);
#807=VECTOR('',#1414,1.);
#808=VECTOR('',#1441,1.);
#809=VECTOR('',#1442,1.);
#810=VECTOR('',#1457,1.);
#811=VECTOR('',#1458,1.);
#812=EDGE_LOOP('',(#102,#103,#104,#105));
#813=EDGE_LOOP('',(#106,#107,#108,#109));
#814=EDGE_LOOP('',(#110,#111,#112,#113));
#815=EDGE_LOOP('',(#114,#115,#116,#117));
#816=EDGE_LOOP('',(#118,#119,#120,#121));
#817=EDGE_LOOP('',(#122,#123,#124,#125));
#818=EDGE_LOOP('',(#126,#127,#128,#129));
#819=EDGE_LOOP('',(#130,#131,#132,#133));
#820=EDGE_LOOP('',(#134,#135,#136,#137));
#821=EDGE_LOOP('',(#138,#139,#140,#141));
#822=EDGE_LOOP('',(#142,#143,#144,#145));
#823=EDGE_LOOP('',(#146,#147,#148,#149));
#824=EDGE_LOOP('',(#150,#151,#152,#153));
#825=EDGE_LOOP('',(#154,#155,#156,#157));
#826=EDGE_LOOP('',(#158,#159,#160,#161));
#827=EDGE_LOOP('',(#162,#163,#164,#165));
#828=EDGE_LOOP('',(#166,#167,#168,#169));
#829=EDGE_LOOP('',(#170,#171,#172,#173));
#830=EDGE_LOOP('',(#174,#175,#176,#177));
#831=EDGE_LOOP('',(#178,#179,#180,#181));
#832=EDGE_LOOP('',(#182,#183,#184,#185));
#833=EDGE_LOOP('',(#186,#187,#188,#189));
#834=EDGE_LOOP('',(#190,#191,#192,#193));
#835=EDGE_LOOP('',(#194,#195,#196,#197));
#836=EDGE_LOOP('',(#198,#199,#200,#201));
#837=EDGE_LOOP('',(#202,#203,#204,#205));
#838=EDGE_LOOP('',(#206,#207,#208,#209));
#839=EDGE_LOOP('',(#210,#211,#212,#213));
#840=EDGE_LOOP('',(#214,#215,#216,#217));
#841=EDGE_LOOP('',(#218,#219,#220,#221));
#842=EDGE_LOOP('',(#222,#223,#224,#225));
#843=EDGE_LOOP('',(#226,#227,#228,#229));
#844=EDGE_LOOP('',(#230,#231,#232,#233));
#845=EDGE_LOOP('',(#234,#235,#236,#237));
#846=EDGE_LOOP('',(#238,#239,#240,#241));
#847=EDGE_LOOP('',(#242,#243,#244,#245));
#848=EDGE_LOOP('',(#246,#247,#248,#249));
#849=EDGE_LOOP('',(#250,#251,#252,#253));
#850=EDGE_LOOP('',(#254,#255,#256,#257));
#851=EDGE_LOOP('',(#258,#259,#260,#261));
#852=EDGE_LOOP('',(#262,#263,#264,#265));
#853=EDGE_LOOP('',(#266,#267,#268,#269));
#854=EDGE_LOOP('',(#270));
#855=EDGE_LOOP('',(#271));
#856=EDGE_LOOP('',(#272));
#857=EDGE_LOOP('',(#273));
#858=EDGE_LOOP('',(#274));
#859=EDGE_LOOP('',(#275));
#860=EDGE_LOOP('',(#276));
#861=EDGE_LOOP('',(#277));
#862=EDGE_LOOP('',(#278,#279,#280,#281));
#863=EDGE_LOOP('',(#282,#283,#284,#285));
#864=EDGE_LOOP('',(#286,#287,#288,#289));
#865=EDGE_LOOP('',(#290,#291,#292,#293));
#866=EDGE_LOOP('',(#294,#295,#296,#297,#298,#299,#300,#301));
#867=EDGE_LOOP('',(#302,#303,#304,#305,#306,#307,#308,#309,#310,#311,#312,
#313,#314,#315,#316,#317));
#868=EDGE_LOOP('',(#318,#319,#320,#321,#322,#323,#324,#325));
#869=EDGE_LOOP('',(#326));
#870=EDGE_LOOP('',(#327));
#871=EDGE_LOOP('',(#328));
#872=EDGE_LOOP('',(#329));
#873=EDGE_LOOP('',(#330,#331,#332,#333,#334,#335,#336,#337,#338,#339,#340,
#341,#342,#343));
#874=EDGE_LOOP('',(#344,#345,#346,#347,#348,#349,#350,#351));
#875=EDGE_LOOP('',(#352,#353,#354,#355,#356,#357,#358,#359,#360,#361,#362,
#363,#364,#365,#366,#367));
#876=EDGE_LOOP('',(#368,#369,#370,#371,#372,#373,#374,#375));
#877=EDGE_LOOP('',(#376));
#878=EDGE_LOOP('',(#377));
#879=EDGE_LOOP('',(#378));
#880=EDGE_LOOP('',(#379));
#881=EDGE_LOOP('',(#380,#381,#382,#383,#384,#385,#386,#387,#388,#389,#390,
#391,#392,#393));
#882=FACE_BOUND('',#812,.T.);
#883=FACE_BOUND('',#813,.T.);
#884=FACE_BOUND('',#814,.T.);
#885=FACE_BOUND('',#815,.T.);
#886=FACE_BOUND('',#816,.T.);
#887=FACE_BOUND('',#817,.T.);
#888=FACE_BOUND('',#818,.T.);
#889=FACE_BOUND('',#819,.T.);
#890=FACE_BOUND('',#820,.T.);
#891=FACE_BOUND('',#821,.T.);
#892=FACE_BOUND('',#822,.T.);
#893=FACE_BOUND('',#823,.T.);
#894=FACE_BOUND('',#824,.T.);
#895=FACE_BOUND('',#825,.T.);
#896=FACE_BOUND('',#826,.T.);
#897=FACE_BOUND('',#827,.T.);
#898=FACE_BOUND('',#828,.T.);
#899=FACE_BOUND('',#829,.T.);
#900=FACE_BOUND('',#830,.T.);
#901=FACE_BOUND('',#831,.T.);
#902=FACE_BOUND('',#832,.T.);
#903=FACE_BOUND('',#833,.T.);
#904=FACE_BOUND('',#834,.T.);
#905=FACE_BOUND('',#835,.T.);
#906=FACE_BOUND('',#836,.T.);
#907=FACE_BOUND('',#837,.T.);
#908=FACE_BOUND('',#838,.T.);
#909=FACE_BOUND('',#839,.T.);
#910=FACE_BOUND('',#840,.T.);
#911=FACE_BOUND('',#841,.T.);
#912=FACE_BOUND('',#842,.T.);
#913=FACE_BOUND('',#843,.T.);
#914=FACE_BOUND('',#844,.T.);
#915=FACE_BOUND('',#845,.T.);
#916=FACE_BOUND('',#846,.T.);
#917=FACE_BOUND('',#847,.T.);
#918=FACE_BOUND('',#848,.T.);
#919=FACE_BOUND('',#849,.T.);
#920=FACE_BOUND('',#850,.T.);
#921=FACE_BOUND('',#851,.T.);
#922=FACE_BOUND('',#852,.T.);
#923=FACE_BOUND('',#853,.T.);
#924=FACE_BOUND('',#854,.T.);
#925=FACE_BOUND('',#855,.T.);
#926=FACE_BOUND('',#856,.T.);
#927=FACE_BOUND('',#857,.T.);
#928=FACE_BOUND('',#858,.T.);
#929=FACE_BOUND('',#859,.T.);
#930=FACE_BOUND('',#860,.T.);
#931=FACE_BOUND('',#861,.T.);
#932=FACE_BOUND('',#862,.T.);
#933=FACE_BOUND('',#863,.T.);
#934=FACE_BOUND('',#864,.T.);
#935=FACE_BOUND('',#865,.T.);
#936=FACE_BOUND('',#866,.T.);
#937=FACE_BOUND('',#867,.T.);
#938=FACE_BOUND('',#868,.T.);
#939=FACE_BOUND('',#869,.T.);
#940=FACE_BOUND('',#870,.T.);
#941=FACE_BOUND('',#871,.T.);
#942=FACE_BOUND('',#872,.T.);
#943=FACE_BOUND('',#873,.T.);
#944=FACE_BOUND('',#874,.T.);
#945=FACE_BOUND('',#875,.T.);
#946=FACE_BOUND('',#876,.T.);
#947=FACE_BOUND('',#877,.T.);
#948=FACE_BOUND('',#878,.T.);
#949=FACE_BOUND('',#879,.T.);
#950=FACE_BOUND('',#880,.T.);
#951=FACE_BOUND('',#881,.T.);
#952=PLANE('',#1039);
#953=PLANE('',#1043);
#954=PLANE('',#1047);
#955=PLANE('',#1051);
#956=PLANE('',#1055);
#957=PLANE('',#1056);
#958=PLANE('',#1060);
#959=PLANE('',#1067);
#960=PLANE('',#1071);
#961=PLANE('',#1075);
#962=PLANE('',#1085);
#963=PLANE('',#1095);
#964=PLANE('',#1105);
#965=PLANE('',#1115);
#966=PLANE('',#1116);
#967=PLANE('',#1120);
#968=PLANE('',#1124);
#969=PLANE('',#1128);
#970=PLANE('',#1141);
#971=PLANE('',#1148);
#972=PLANE('',#1149);
#973=PLANE('',#1150);
#974=ADVANCED_FACE('',(#882),#952,.F.);
#975=ADVANCED_FACE('',(#883),#72,.T.);
#976=ADVANCED_FACE('',(#884),#953,.F.);
#977=ADVANCED_FACE('',(#885),#73,.T.);
#978=ADVANCED_FACE('',(#886),#954,.F.);
#979=ADVANCED_FACE('',(#887),#74,.T.);
#980=ADVANCED_FACE('',(#888),#955,.F.);
#981=ADVANCED_FACE('',(#889),#75,.T.);
#982=ADVANCED_FACE('',(#890),#956,.F.);
#983=ADVANCED_FACE('',(#891),#957,.T.);
#984=ADVANCED_FACE('',(#892),#76,.F.);
#985=ADVANCED_FACE('',(#893),#958,.F.);
#986=ADVANCED_FACE('',(#894),#77,.F.);
#987=ADVANCED_FACE('',(#895),#78,.F.);
#988=ADVANCED_FACE('',(#896),#959,.F.);
#989=ADVANCED_FACE('',(#897),#79,.F.);
#990=ADVANCED_FACE('',(#898),#960,.F.);
#991=ADVANCED_FACE('',(#899),#80,.F.);
#992=ADVANCED_FACE('',(#900),#961,.T.);
#993=ADVANCED_FACE('',(#901),#81,.F.);
#994=ADVANCED_FACE('',(#902),#82,.F.);
#995=ADVANCED_FACE('',(#903),#83,.F.);
#996=ADVANCED_FACE('',(#904),#962,.T.);
#997=ADVANCED_FACE('',(#905),#84,.F.);
#998=ADVANCED_FACE('',(#906),#85,.F.);
#999=ADVANCED_FACE('',(#907),#86,.F.);
#1000=ADVANCED_FACE('',(#908),#963,.T.);
#1001=ADVANCED_FACE('',(#909),#87,.F.);
#1002=ADVANCED_FACE('',(#910),#88,.F.);
#1003=ADVANCED_FACE('',(#911),#89,.F.);
#1004=ADVANCED_FACE('',(#912),#964,.T.);
#1005=ADVANCED_FACE('',(#913),#90,.F.);
#1006=ADVANCED_FACE('',(#914),#91,.F.);
#1007=ADVANCED_FACE('',(#915),#92,.F.);
#1008=ADVANCED_FACE('',(#916),#965,.T.);
#1009=ADVANCED_FACE('',(#917),#966,.T.);
#1010=ADVANCED_FACE('',(#918),#93,.F.);
#1011=ADVANCED_FACE('',(#919),#967,.T.);
#1012=ADVANCED_FACE('',(#920),#94,.F.);
#1013=ADVANCED_FACE('',(#921),#968,.F.);
#1014=ADVANCED_FACE('',(#922),#95,.F.);
#1015=ADVANCED_FACE('',(#923),#969,.F.);
#1016=ADVANCED_FACE('',(#924,#925),#96,.F.);
#1017=ADVANCED_FACE('',(#926,#927),#97,.F.);
#1018=ADVANCED_FACE('',(#928,#929),#98,.F.);
#1019=ADVANCED_FACE('',(#930,#931),#99,.F.);
#1020=ADVANCED_FACE('',(#932),#970,.T.);
#1021=ADVANCED_FACE('',(#933),#100,.F.);
#1022=ADVANCED_FACE('',(#934),#101,.F.);
#1023=ADVANCED_FACE('',(#935),#971,.F.);
#1024=ADVANCED_FACE('',(#936,#937,#938,#939,#940,#941,#942,#943),#972,.T.);
#1025=ADVANCED_FACE('',(#944,#945,#946,#947,#948,#949,#950,#951),#973,.F.);
#1026=CLOSED_SHELL('',(#974,#975,#976,#977,#978,#979,#980,#981,#982,#983,
#984,#985,#986,#987,#988,#989,#990,#991,#992,#993,#994,#995,#996,#997,#998,
#999,#1000,#1001,#1002,#1003,#1004,#1005,#1006,#1007,#1008,#1009,#1010,
#1011,#1012,#1013,#1014,#1015,#1016,#1017,#1018,#1019,#1020,#1021,#1022,
#1023,#1024,#1025));
#1027=STYLED_ITEM('',(#1028),#1035);
#1028=PRESENTATION_STYLE_ASSIGNMENT((#1029));
#1029=SURFACE_STYLE_USAGE(.BOTH.,#1030);
#1030=SURFACE_SIDE_STYLE('',(#1031));
#1031=SURFACE_STYLE_FILL_AREA(#1032);
#1032=FILL_AREA_STYLE('',(#1033));
#1033=FILL_AREA_STYLE_COLOUR('',#1034);
#1034=COLOUR_RGB('',0.980392156862745,0.713725490196078,0.00392156862745098);
#1035=MANIFOLD_SOLID_BREP('Part 107',#1026);
#1036=SHAPE_DEFINITION_REPRESENTATION(#1768,#1037);
#1037=SHAPE_REPRESENTATION('Part 107',(#1038),#1763);
#1038=AXIS2_PLACEMENT_3D('',#1463,#1151,#1152);
#1039=AXIS2_PLACEMENT_3D('',#1464,#1153,#1154);
#1040=AXIS2_PLACEMENT_3D('',#1473,#1159,#1160);
#1041=AXIS2_PLACEMENT_3D('',#1474,#1161,#1162);
#1042=AXIS2_PLACEMENT_3D('',#1478,#1164,#1165);
#1043=AXIS2_PLACEMENT_3D('',#1479,#1166,#1167);
#1044=AXIS2_PLACEMENT_3D('',#1485,#1171,#1172);
#1045=AXIS2_PLACEMENT_3D('',#1486,#1173,#1174);
#1046=AXIS2_PLACEMENT_3D('',#1490,#1176,#1177);
#1047=AXIS2_PLACEMENT_3D('',#1491,#1178,#1179);
#1048=AXIS2_PLACEMENT_3D('',#1497,#1183,#1184);
#1049=AXIS2_PLACEMENT_3D('',#1498,#1185,#1186);
#1050=AXIS2_PLACEMENT_3D('',#1502,#1188,#1189);
#1051=AXIS2_PLACEMENT_3D('',#1503,#1190,#1191);
#1052=AXIS2_PLACEMENT_3D('',#1509,#1195,#1196);
#1053=AXIS2_PLACEMENT_3D('',#1510,#1197,#1198);
#1054=AXIS2_PLACEMENT_3D('',#1514,#1200,#1201);
#1055=AXIS2_PLACEMENT_3D('',#1515,#1202,#1203);
#1056=AXIS2_PLACEMENT_3D('',#1521,#1207,#1208);
#1057=AXIS2_PLACEMENT_3D('',#1527,#1212,#1213);
#1058=AXIS2_PLACEMENT_3D('',#1528,#1214,#1215);
#1059=AXIS2_PLACEMENT_3D('',#1532,#1217,#1218);
#1060=AXIS2_PLACEMENT_3D('',#1533,#1219,#1220);
#1061=AXIS2_PLACEMENT_3D('',#1539,#1224,#1225);
#1062=AXIS2_PLACEMENT_3D('',#1540,#1226,#1227);
#1063=AXIS2_PLACEMENT_3D('',#1544,#1229,#1230);
#1064=AXIS2_PLACEMENT_3D('',#1545,#1231,#1232);
#1065=AXIS2_PLACEMENT_3D('',#1546,#1233,#1234);
#1066=AXIS2_PLACEMENT_3D('',#1551,#1236,#1237);
#1067=AXIS2_PLACEMENT_3D('',#1554,#1239,#1240);
#1068=AXIS2_PLACEMENT_3D('',#1560,#1244,#1245);
#1069=AXIS2_PLACEMENT_3D('',#1561,#1246,#1247);
#1070=AXIS2_PLACEMENT_3D('',#1565,#1249,#1250);
#1071=AXIS2_PLACEMENT_3D('',#1566,#1251,#1252);
#1072=AXIS2_PLACEMENT_3D('',#1572,#1256,#1257);
#1073=AXIS2_PLACEMENT_3D('',#1573,#1258,#1259);
#1074=AXIS2_PLACEMENT_3D('',#1577,#1261,#1262);
#1075=AXIS2_PLACEMENT_3D('',#1578,#1263,#1264);
#1076=AXIS2_PLACEMENT_3D('',#1584,#1268,#1269);
#1077=AXIS2_PLACEMENT_3D('',#1585,#1270,#1271);
#1078=AXIS2_PLACEMENT_3D('',#1589,#1273,#1274);
#1079=AXIS2_PLACEMENT_3D('',#1590,#1275,#1276);
#1080=AXIS2_PLACEMENT_3D('',#1591,#1277,#1278);
#1081=AXIS2_PLACEMENT_3D('',#1596,#1280,#1281);
#1082=AXIS2_PLACEMENT_3D('',#1599,#1283,#1284);
#1083=AXIS2_PLACEMENT_3D('',#1600,#1285,#1286);
#1084=AXIS2_PLACEMENT_3D('',#1604,#1288,#1289);
#1085=AXIS2_PLACEMENT_3D('',#1605,#1290,#1291);
#1086=AXIS2_PLACEMENT_3D('',#1611,#1295,#1296);
#1087=AXIS2_PLACEMENT_3D('',#1612,#1297,#1298);
#1088=AXIS2_PLACEMENT_3D('',#1616,#1300,#1301);
#1089=AXIS2_PLACEMENT_3D('',#1617,#1302,#1303);
#1090=AXIS2_PLACEMENT_3D('',#1618,#1304,#1305);
#1091=AXIS2_PLACEMENT_3D('',#1622,#1307,#1308);
#1092=AXIS2_PLACEMENT_3D('',#1623,#1309,#1310);
#1093=AXIS2_PLACEMENT_3D('',#1624,#1311,#1312);
#1094=AXIS2_PLACEMENT_3D('',#1628,#1314,#1315);
#1095=AXIS2_PLACEMENT_3D('',#1629,#1316,#1317);
#1096=AXIS2_PLACEMENT_3D('',#1635,#1321,#1322);
#1097=AXIS2_PLACEMENT_3D('',#1636,#1323,#1324);
#1098=AXIS2_PLACEMENT_3D('',#1640,#1326,#1327);
#1099=AXIS2_PLACEMENT_3D('',#1641,#1328,#1329);
#1100=AXIS2_PLACEMENT_3D('',#1642,#1330,#1331);
#1101=AXIS2_PLACEMENT_3D('',#1646,#1333,#1334);
#1102=AXIS2_PLACEMENT_3D('',#1647,#1335,#1336);
#1103=AXIS2_PLACEMENT_3D('',#1648,#1337,#1338);
#1104=AXIS2_PLACEMENT_3D('',#1652,#1340,#1341);
#1105=AXIS2_PLACEMENT_3D('',#1653,#1342,#1343);
#1106=AXIS2_PLACEMENT_3D('',#1659,#1347,#1348);
#1107=AXIS2_PLACEMENT_3D('',#1660,#1349,#1350);
#1108=AXIS2_PLACEMENT_3D('',#1664,#1352,#1353);
#1109=AXIS2_PLACEMENT_3D('',#1665,#1354,#1355);
#1110=AXIS2_PLACEMENT_3D('',#1666,#1356,#1357);
#1111=AXIS2_PLACEMENT_3D('',#1670,#1359,#1360);
#1112=AXIS2_PLACEMENT_3D('',#1671,#1361,#1362);
#1113=AXIS2_PLACEMENT_3D('',#1672,#1363,#1364);
#1114=AXIS2_PLACEMENT_3D('',#1676,#1366,#1367);
#1115=AXIS2_PLACEMENT_3D('',#1677,#1368,#1369);
#1116=AXIS2_PLACEMENT_3D('',#1683,#1373,#1374);
#1117=AXIS2_PLACEMENT_3D('',#1692,#1379,#1380);
#1118=AXIS2_PLACEMENT_3D('',#1693,#1381,#1382);
#1119=AXIS2_PLACEMENT_3D('',#1697,#1384,#1385);
#1120=AXIS2_PLACEMENT_3D('',#1698,#1386,#1387);
#1121=AXIS2_PLACEMENT_3D('',#1704,#1391,#1392);
#1122=AXIS2_PLACEMENT_3D('',#1705,#1393,#1394);
#1123=AXIS2_PLACEMENT_3D('',#1709,#1396,#1397);
#1124=AXIS2_PLACEMENT_3D('',#1710,#1398,#1399);
#1125=AXIS2_PLACEMENT_3D('',#1716,#1403,#1404);
#1126=AXIS2_PLACEMENT_3D('',#1717,#1405,#1406);
#1127=AXIS2_PLACEMENT_3D('',#1721,#1408,#1409);
#1128=AXIS2_PLACEMENT_3D('',#1722,#1410,#1411);
#1129=AXIS2_PLACEMENT_3D('',#1728,#1415,#1416);
#1130=AXIS2_PLACEMENT_3D('',#1729,#1417,#1418);
#1131=AXIS2_PLACEMENT_3D('',#1731,#1419,#1420);
#1132=AXIS2_PLACEMENT_3D('',#1733,#1421,#1422);
#1133=AXIS2_PLACEMENT_3D('',#1734,#1423,#1424);
#1134=AXIS2_PLACEMENT_3D('',#1736,#1425,#1426);
#1135=AXIS2_PLACEMENT_3D('',#1738,#1427,#1428);
#1136=AXIS2_PLACEMENT_3D('',#1739,#1429,#1430);
#1137=AXIS2_PLACEMENT_3D('',#1741,#1431,#1432);
#1138=AXIS2_PLACEMENT_3D('',#1743,#1433,#1434);
#1139=AXIS2_PLACEMENT_3D('',#1744,#1435,#1436);
#1140=AXIS2_PLACEMENT_3D('',#1746,#1437,#1438);
#1141=AXIS2_PLACEMENT_3D('',#1748,#1439,#1440);
#1142=AXIS2_PLACEMENT_3D('',#1751,#1443,#1444);
#1143=AXIS2_PLACEMENT_3D('',#1752,#1445,#1446);
#1144=AXIS2_PLACEMENT_3D('',#1753,#1447,#1448);
#1145=AXIS2_PLACEMENT_3D('',#1754,#1449,#1450);
#1146=AXIS2_PLACEMENT_3D('',#1755,#1451,#1452);
#1147=AXIS2_PLACEMENT_3D('',#1756,#1453,#1454);
#1148=AXIS2_PLACEMENT_3D('',#1757,#1455,#1456);
#1149=AXIS2_PLACEMENT_3D('',#1760,#1459,#1460);
#1150=AXIS2_PLACEMENT_3D('',#1761,#1461,#1462);
#1151=DIRECTION('',(0.,0.,1.));
#1152=DIRECTION('',(1.,0.,0.));
#1153=DIRECTION('',(0.,-1.,0.));
#1154=DIRECTION('',(0.,0.,-1.));
#1155=DIRECTION('',(-1.,0.,0.));
#1156=DIRECTION('',(0.,0.,-1.));
#1157=DIRECTION('',(-1.,0.,0.));
#1158=DIRECTION('',(0.,0.,-1.));
#1159=DIRECTION('',(0.,0.,-1.));
#1160=DIRECTION('',(-1.,0.,0.));
#1161=DIRECTION('',(0.,0.,1.));
#1162=DIRECTION('',(1.,0.,0.));
#1163=DIRECTION('',(0.,0.,-1.));
#1164=DIRECTION('',(0.,0.,1.));
#1165=DIRECTION('',(1.,0.,0.));
#1166=DIRECTION('',(1.,1.18740430441193E-16,0.));
#1167=DIRECTION('',(-1.18740430441193E-16,1.,0.));
#1168=DIRECTION('',(1.18740430441193E-16,-1.,0.));
#1169=DIRECTION('',(0.,0.,-1.));
#1170=DIRECTION('',(1.18740430441193E-16,-1.,0.));
#1171=DIRECTION('',(0.,0.,-1.));
#1172=DIRECTION('',(-1.,0.,0.));
#1173=DIRECTION('',(0.,0.,1.));
#1174=DIRECTION('',(1.,0.,0.));
#1175=DIRECTION('',(0.,0.,-1.));
#1176=DIRECTION('',(0.,0.,1.));
#1177=DIRECTION('',(1.,0.,0.));
#1178=DIRECTION('',(0.,1.,0.));
#1179=DIRECTION('',(0.,0.,1.));
#1180=DIRECTION('',(1.,0.,0.));
#1181=DIRECTION('',(0.,0.,-1.));
#1182=DIRECTION('',(1.,0.,0.));
#1183=DIRECTION('',(0.,0.,-1.));
#1184=DIRECTION('',(-1.,0.,0.));
#1185=DIRECTION('',(0.,0.,1.));
#1186=DIRECTION('',(1.,0.,0.));
#1187=DIRECTION('',(0.,0.,-1.));
#1188=DIRECTION('',(0.,0.,1.));
#1189=DIRECTION('',(1.,0.,0.));
#1190=DIRECTION('',(-1.,0.,0.));
#1191=DIRECTION('',(0.,0.,1.));
#1192=DIRECTION('',(0.,1.,0.));
#1193=DIRECTION('',(0.,0.,-1.));
#1194=DIRECTION('',(0.,1.,0.));
#1195=DIRECTION('',(0.,0.,-1.));
#1196=DIRECTION('',(-1.,0.,0.));
#1197=DIRECTION('',(0.,0.,1.));
#1198=DIRECTION('',(1.,0.,0.));
#1199=DIRECTION('',(0.,0.,-1.));
#1200=DIRECTION('',(0.,0.,1.));
#1201=DIRECTION('',(1.,0.,0.));
#1202=DIRECTION('',(0.,-1.,0.));
#1203=DIRECTION('',(0.,0.,-1.));
#1204=DIRECTION('',(-1.,0.,0.));
#1205=DIRECTION('',(0.,0.,-1.));
#1206=DIRECTION('',(-1.,0.,0.));
#1207=DIRECTION('',(-1.,0.,0.));
#1208=DIRECTION('',(0.,0.,1.));
#1209=DIRECTION('',(0.,1.,0.));
#1210=DIRECTION('',(0.,0.,-1.));
#1211=DIRECTION('',(0.,1.,0.));
#1212=DIRECTION('',(0.,0.,-1.));
#1213=DIRECTION('',(-1.,0.,0.));
#1214=DIRECTION('',(0.,0.,1.));
#1215=DIRECTION('',(1.,0.,0.));
#1216=DIRECTION('',(0.,0.,-1.));
#1217=DIRECTION('',(0.,0.,1.));
#1218=DIRECTION('',(1.,0.,0.));
#1219=DIRECTION('',(0.,-1.,0.));
#1220=DIRECTION('',(0.,0.,-1.));
#1221=DIRECTION('',(-1.,0.,0.));
#1222=DIRECTION('',(0.,0.,-1.));
#1223=DIRECTION('',(-1.,0.,0.));
#1224=DIRECTION('',(0.,0.,-1.));
#1225=DIRECTION('',(-1.,0.,0.));
#1226=DIRECTION('',(0.,0.,1.));
#1227=DIRECTION('',(1.,0.,0.));
#1228=DIRECTION('',(0.,0.,-1.));
#1229=DIRECTION('',(0.,0.,1.));
#1230=DIRECTION('',(1.,0.,0.));
#1231=DIRECTION('',(0.,0.,-1.));
#1232=DIRECTION('',(-1.,0.,0.));
#1233=DIRECTION('',(0.,0.,1.));
#1234=DIRECTION('',(1.,0.,0.));
#1235=DIRECTION('',(0.,0.,-1.));
#1236=DIRECTION('',(0.,0.,1.));
#1237=DIRECTION('',(1.,0.,0.));
#1238=DIRECTION('',(0.,0.,-1.));
#1239=DIRECTION('',(0.,1.,0.));
#1240=DIRECTION('',(0.,0.,1.));
#1241=DIRECTION('',(1.,0.,0.));
#1242=DIRECTION('',(0.,0.,-1.));
#1243=DIRECTION('',(1.,0.,0.));
#1244=DIRECTION('',(0.,0.,-1.));
#1245=DIRECTION('',(-1.,0.,0.));
#1246=DIRECTION('',(0.,0.,1.));
#1247=DIRECTION('',(1.,0.,0.));
#1248=DIRECTION('',(0.,0.,-1.));
#1249=DIRECTION('',(0.,0.,1.));
#1250=DIRECTION('',(1.,0.,0.));
#1251=DIRECTION('',(1.,0.,0.));
#1252=DIRECTION('',(0.,0.,-1.));
#1253=DIRECTION('',(0.,-1.,0.));
#1254=DIRECTION('',(0.,0.,-1.));
#1255=DIRECTION('',(0.,-1.,0.));
#1256=DIRECTION('',(0.,0.,-1.));
#1257=DIRECTION('',(-1.,0.,0.));
#1258=DIRECTION('',(0.,0.,1.));
#1259=DIRECTION('',(1.,0.,0.));
#1260=DIRECTION('',(0.,0.,-1.));
#1261=DIRECTION('',(0.,0.,1.));
#1262=DIRECTION('',(1.,0.,0.));
#1263=DIRECTION('',(0.,1.,0.));
#1264=DIRECTION('',(0.,0.,1.));
#1265=DIRECTION('',(1.,0.,0.));
#1266=DIRECTION('',(0.,0.,-1.));
#1267=DIRECTION('',(1.,0.,0.));
#1268=DIRECTION('',(0.,0.,-1.));
#1269=DIRECTION('',(-1.,0.,0.));
#1270=DIRECTION('',(0.,0.,1.));
#1271=DIRECTION('',(1.,0.,0.));
#1272=DIRECTION('',(0.,0.,-1.));
#1273=DIRECTION('',(0.,0.,1.));
#1274=DIRECTION('',(1.,0.,0.));
#1275=DIRECTION('',(0.,0.,-1.));
#1276=DIRECTION('',(-1.,0.,0.));
#1277=DIRECTION('',(0.,0.,1.));
#1278=DIRECTION('',(1.,0.,0.));
#1279=DIRECTION('',(0.,0.,-1.));
#1280=DIRECTION('',(0.,0.,1.));
#1281=DIRECTION('',(1.,0.,0.));
#1282=DIRECTION('',(0.,0.,-1.));
#1283=DIRECTION('',(0.,0.,-1.));
#1284=DIRECTION('',(-1.,0.,0.));
#1285=DIRECTION('',(0.,0.,1.));
#1286=DIRECTION('',(-0.707106781186548,0.707106781186548,0.));
#1287=DIRECTION('',(0.,0.,-1.));
#1288=DIRECTION('',(0.,0.,1.));
#1289=DIRECTION('',(-0.707106781186548,0.707106781186548,0.));
#1290=DIRECTION('',(0.,-1.,0.));
#1291=DIRECTION('',(0.,0.,-1.));
#1292=DIRECTION('',(-1.,0.,0.));
#1293=DIRECTION('',(0.,0.,-1.));
#1294=DIRECTION('',(-1.,0.,0.));
#1295=DIRECTION('',(0.,0.,-1.));
#1296=DIRECTION('',(-1.,0.,0.));
#1297=DIRECTION('',(0.,0.,1.));
#1298=DIRECTION('',(0.707106781186548,0.707106781186548,0.));
#1299=DIRECTION('',(0.,0.,-1.));
#1300=DIRECTION('',(0.,0.,1.));
#1301=DIRECTION('',(0.707106781186548,0.707106781186548,0.));
#1302=DIRECTION('',(0.,0.,-1.));
#1303=DIRECTION('',(-1.,0.,0.));
#1304=DIRECTION('',(0.,0.,1.));
#1305=DIRECTION('',(1.,0.,0.));
#1306=DIRECTION('',(0.,0.,-1.));
#1307=DIRECTION('',(0.,0.,1.));
#1308=DIRECTION('',(1.,0.,0.));
#1309=DIRECTION('',(0.,0.,-1.));
#1310=DIRECTION('',(-1.,0.,0.));
#1311=DIRECTION('',(0.,0.,1.));
#1312=DIRECTION('',(0.707106781186548,0.707106781186548,0.));
#1313=DIRECTION('',(0.,0.,-1.));
#1314=DIRECTION('',(0.,0.,1.));
#1315=DIRECTION('',(0.707106781186548,0.707106781186548,0.));
#1316=DIRECTION('',(-1.,0.,0.));
#1317=DIRECTION('',(0.,0.,1.));
#1318=DIRECTION('',(0.,1.,0.));
#1319=DIRECTION('',(0.,0.,-1.));
#1320=DIRECTION('',(0.,1.,0.));
#1321=DIRECTION('',(0.,0.,-1.));
#1322=DIRECTION('',(-1.,0.,0.));
#1323=DIRECTION('',(0.,0.,1.));
#1324=DIRECTION('',(0.707106781186545,-0.70710678118655,0.));
#1325=DIRECTION('',(0.,0.,-1.));
#1326=DIRECTION('',(0.,0.,1.));
#1327=DIRECTION('',(0.707106781186545,-0.70710678118655,0.));
#1328=DIRECTION('',(0.,0.,-1.));
#1329=DIRECTION('',(-1.,0.,0.));
#1330=DIRECTION('',(0.,0.,1.));
#1331=DIRECTION('',(1.,0.,0.));
#1332=DIRECTION('',(0.,0.,-1.));
#1333=DIRECTION('',(0.,0.,1.));
#1334=DIRECTION('',(1.,0.,0.));
#1335=DIRECTION('',(0.,0.,-1.));
#1336=DIRECTION('',(-1.,0.,0.));
#1337=DIRECTION('',(0.,0.,1.));
#1338=DIRECTION('',(0.707106781186545,-0.70710678118655,0.));
#1339=DIRECTION('',(0.,0.,-1.));
#1340=DIRECTION('',(0.,0.,1.));
#1341=DIRECTION('',(0.707106781186545,-0.70710678118655,0.));
#1342=DIRECTION('',(0.,1.,0.));
#1343=DIRECTION('',(0.,0.,1.));
#1344=DIRECTION('',(1.,0.,0.));
#1345=DIRECTION('',(0.,0.,-1.));
#1346=DIRECTION('',(1.,0.,0.));
#1347=DIRECTION('',(0.,0.,-1.));
#1348=DIRECTION('',(-1.,0.,0.));
#1349=DIRECTION('',(0.,0.,1.));
#1350=DIRECTION('',(-0.70710678118655,-0.707106781186545,0.));
#1351=DIRECTION('',(0.,0.,-1.));
#1352=DIRECTION('',(0.,0.,1.));
#1353=DIRECTION('',(-0.70710678118655,-0.707106781186545,0.));
#1354=DIRECTION('',(0.,0.,-1.));
#1355=DIRECTION('',(-1.,0.,0.));
#1356=DIRECTION('',(0.,0.,1.));
#1357=DIRECTION('',(1.,0.,0.));
#1358=DIRECTION('',(0.,0.,-1.));
#1359=DIRECTION('',(0.,0.,1.));
#1360=DIRECTION('',(1.,0.,0.));
#1361=DIRECTION('',(0.,0.,-1.));
#1362=DIRECTION('',(-1.,0.,0.));
#1363=DIRECTION('',(0.,0.,1.));
#1364=DIRECTION('',(-0.70710678118655,-0.707106781186545,0.));
#1365=DIRECTION('',(0.,0.,-1.));
#1366=DIRECTION('',(0.,0.,1.));
#1367=DIRECTION('',(-0.70710678118655,-0.707106781186545,0.));
#1368=DIRECTION('',(1.,0.,0.));
#1369=DIRECTION('',(0.,0.,-1.));
#1370=DIRECTION('',(0.,-1.,0.));
#1371=DIRECTION('',(0.,0.,-1.));
#1372=DIRECTION('',(0.,-1.,0.));
#1373=DIRECTION('',(0.,1.,0.));
#1374=DIRECTION('',(0.,0.,1.));
#1375=DIRECTION('',(1.,0.,0.));
#1376=DIRECTION('',(0.,0.,-1.));
#1377=DIRECTION('',(1.,0.,0.));
#1378=DIRECTION('',(0.,0.,-1.));
#1379=DIRECTION('',(0.,0.,-1.));
#1380=DIRECTION('',(-1.,0.,0.));
#1381=DIRECTION('',(0.,0.,1.));
#1382=DIRECTION('',(1.,0.,0.));
#1383=DIRECTION('',(0.,0.,-1.));
#1384=DIRECTION('',(0.,0.,1.));
#1385=DIRECTION('',(1.,0.,0.));
#1386=DIRECTION('',(1.,0.,0.));
#1387=DIRECTION('',(0.,0.,-1.));
#1388=DIRECTION('',(0.,-1.,0.));
#1389=DIRECTION('',(0.,0.,-1.));
#1390=DIRECTION('',(0.,-1.,0.));
#1391=DIRECTION('',(0.,0.,-1.));
#1392=DIRECTION('',(-1.,0.,0.));
#1393=DIRECTION('',(0.,0.,1.));
#1394=DIRECTION('',(1.,0.,0.));
#1395=DIRECTION('',(0.,0.,-1.));
#1396=DIRECTION('',(0.,0.,1.));
#1397=DIRECTION('',(1.,0.,0.));
#1398=DIRECTION('',(0.,1.,0.));
#1399=DIRECTION('',(0.,0.,1.));
#1400=DIRECTION('',(1.,0.,0.));
#1401=DIRECTION('',(0.,0.,-1.));
#1402=DIRECTION('',(1.,0.,0.));
#1403=DIRECTION('',(0.,0.,-1.));
#1404=DIRECTION('',(-1.,0.,0.));
#1405=DIRECTION('',(0.,0.,1.));
#1406=DIRECTION('',(1.,0.,0.));
#1407=DIRECTION('',(0.,0.,-1.));
#1408=DIRECTION('',(0.,0.,1.));
#1409=DIRECTION('',(1.,0.,0.));
#1410=DIRECTION('',(1.,0.,0.));
#1411=DIRECTION('',(0.,0.,-1.));
#1412=DIRECTION('',(0.,-1.,0.));
#1413=DIRECTION('',(0.,0.,-1.));
#1414=DIRECTION('',(0.,-1.,0.));
#1415=DIRECTION('',(0.,0.,-1.));
#1416=DIRECTION('',(-1.,0.,0.));
#1417=DIRECTION('',(0.,0.,1.));
#1418=DIRECTION('',(1.,0.,0.));
#1419=DIRECTION('',(0.,0.,1.));
#1420=DIRECTION('',(1.,0.,0.));
#1421=DIRECTION('',(0.,0.,-1.));
#1422=DIRECTION('',(-1.,0.,0.));
#1423=DIRECTION('',(0.,0.,1.));
#1424=DIRECTION('',(1.,0.,0.));
#1425=DIRECTION('',(0.,0.,1.));
#1426=DIRECTION('',(1.,0.,0.));
#1427=DIRECTION('',(0.,0.,-1.));
#1428=DIRECTION('',(-1.,0.,0.));
#1429=DIRECTION('',(0.,0.,1.));
#1430=DIRECTION('',(1.,0.,0.));
#1431=DIRECTION('',(0.,0.,1.));
#1432=DIRECTION('',(1.,0.,0.));
#1433=DIRECTION('',(0.,0.,-1.));
#1434=DIRECTION('',(-1.,0.,0.));
#1435=DIRECTION('',(0.,0.,1.));
#1436=DIRECTION('',(1.,0.,0.));
#1437=DIRECTION('',(0.,0.,1.));
#1438=DIRECTION('',(1.,0.,0.));
#1439=DIRECTION('',(1.,0.,0.));
#1440=DIRECTION('',(0.,0.,-1.));
#1441=DIRECTION('',(0.,-1.,0.));
#1442=DIRECTION('',(0.,-1.,0.));
#1443=DIRECTION('',(0.,0.,-1.));
#1444=DIRECTION('',(-1.,0.,0.));
#1445=DIRECTION('',(0.,0.,1.));
#1446=DIRECTION('',(-0.707106781186548,0.707106781186548,0.));
#1447=DIRECTION('',(0.,0.,1.));
#1448=DIRECTION('',(-0.707106781186548,0.707106781186548,0.));
#1449=DIRECTION('',(0.,0.,-1.));
#1450=DIRECTION('',(-1.,0.,0.));
#1451=DIRECTION('',(0.,0.,1.));
#1452=DIRECTION('',(1.,0.,0.));
#1453=DIRECTION('',(0.,0.,1.));
#1454=DIRECTION('',(1.,0.,0.));
#1455=DIRECTION('',(-1.,0.,0.));
#1456=DIRECTION('',(0.,0.,1.));
#1457=DIRECTION('',(0.,1.,0.));
#1458=DIRECTION('',(0.,1.,0.));
#1459=DIRECTION('',(0.,0.,1.));
#1460=DIRECTION('',(1.,0.,0.));
#1461=DIRECTION('',(0.,0.,1.));
#1462=DIRECTION('',(1.,0.,0.));
#1463=CARTESIAN_POINT('',(0.,0.,0.));
#1464=CARTESIAN_POINT('',(-0.0509999999999988,0.0373999999999992,0.018));
#1465=CARTESIAN_POINT('',(-0.0509999999999988,0.0373999999999992,0.0145));
#1466=CARTESIAN_POINT('',(0.0190792959183454,0.0373999999999992,0.0145));
#1467=CARTESIAN_POINT('',(-0.0459999999994509,0.0373999992785478,0.0145));
#1468=CARTESIAN_POINT('',(-0.0459999999994509,0.0373999992785478,0.018));
#1469=CARTESIAN_POINT('',(-0.0459999999994509,0.0373999992785478,0.018));
#1470=CARTESIAN_POINT('',(-0.0509999999999988,0.0373999999999992,0.018));
#1471=CARTESIAN_POINT('',(0.0190792959183454,0.0373999999999992,0.018));
#1472=CARTESIAN_POINT('',(0.0190792959183454,0.0373999999999992,0.018));
#1473=CARTESIAN_POINT('',(-0.0459961999999988,0.0323961999999992,0.018));
#1474=CARTESIAN_POINT('',(-0.0459961999999988,0.0323961999999992,0.0145));
#1475=CARTESIAN_POINT('',(-0.0509999999999988,0.0323999999999992,0.0145));
#1476=CARTESIAN_POINT('',(-0.0509999999999988,0.0323999999999992,0.018));
#1477=CARTESIAN_POINT('',(-0.0509999999999988,0.0323999999999992,0.018));
#1478=CARTESIAN_POINT('',(-0.0459961999999988,0.0323961999999992,0.018));
#1479=CARTESIAN_POINT('',(-0.0509999999999988,-0.0374000000000008,0.018));
#1480=CARTESIAN_POINT('',(-0.0509999999999988,-0.0374000000000008,0.0145));
#1481=CARTESIAN_POINT('',(-0.0509999999999988,-0.0324000000000008,0.0145));
#1482=CARTESIAN_POINT('',(-0.0509999999999988,-0.0324000000000008,0.018));
#1483=CARTESIAN_POINT('',(-0.0509999999999988,-0.0324000000000008,0.018));
#1484=CARTESIAN_POINT('',(-0.0509999999999988,-0.0374000000000008,0.018));
#1485=CARTESIAN_POINT('',(-0.0459961999999988,-0.0323962000000007,0.018));
#1486=CARTESIAN_POINT('',(-0.0459961999999988,-0.0323962000000007,0.0145));
#1487=CARTESIAN_POINT('',(-0.0459999999994509,-0.0373999992785494,0.0145));
#1488=CARTESIAN_POINT('',(-0.0459999999994509,-0.0373999992785494,0.018));
#1489=CARTESIAN_POINT('',(-0.0459999999994509,-0.0373999992785494,0.018));
#1490=CARTESIAN_POINT('',(-0.0459961999999988,-0.0323962000000007,0.018));
#1491=CARTESIAN_POINT('',(0.0510000000000012,-0.0374000000000008,0.018));
#1492=CARTESIAN_POINT('',(0.0510000000000012,-0.0374000000000008,0.0145));
#1493=CARTESIAN_POINT('',(0.0459999999994533,-0.0373999992785494,0.0145));
#1494=CARTESIAN_POINT('',(0.0459999999994533,-0.0373999992785494,0.018));
#1495=CARTESIAN_POINT('',(0.0459999999994533,-0.0373999992785494,0.018));
#1496=CARTESIAN_POINT('',(0.0510000000000012,-0.0374000000000008,0.018));
#1497=CARTESIAN_POINT('',(0.0459962000000012,-0.0323962000000007,0.018));
#1498=CARTESIAN_POINT('',(0.0459962000000012,-0.0323962000000007,0.0145));
#1499=CARTESIAN_POINT('',(0.0509999992785498,-0.0323999999994529,0.0145));
#1500=CARTESIAN_POINT('',(0.0509999992785498,-0.0323999999994529,0.018));
#1501=CARTESIAN_POINT('',(0.0509999992785498,-0.0323999999994529,0.018));
#1502=CARTESIAN_POINT('',(0.0459962000000012,-0.0323962000000007,0.018));
#1503=CARTESIAN_POINT('',(0.0510000000000012,0.0373999999999992,0.018));
#1504=CARTESIAN_POINT('',(0.0510000000000012,0.0373999999999992,0.0145));
#1505=CARTESIAN_POINT('',(0.0509999992785498,0.0323999999994513,0.0145));
#1506=CARTESIAN_POINT('',(0.0509999992785498,0.0323999999994513,0.018));
#1507=CARTESIAN_POINT('',(0.0509999992785498,0.0323999999994513,0.018));
#1508=CARTESIAN_POINT('',(0.0510000000000012,0.0373999999999992,0.018));
#1509=CARTESIAN_POINT('',(0.0459962000000012,0.0323961999999992,0.018));
#1510=CARTESIAN_POINT('',(0.0459962000000012,0.0323961999999992,0.0145));
#1511=CARTESIAN_POINT('',(0.0460000000000012,0.0373999999999992,0.0145));
#1512=CARTESIAN_POINT('',(0.0460000000000012,0.0373999999999992,0.018));
#1513=CARTESIAN_POINT('',(0.0460000000000012,0.0373999999999992,0.018));
#1514=CARTESIAN_POINT('',(0.0459962000000012,0.0323961999999992,0.018));
#1515=CARTESIAN_POINT('',(-0.0509999999999988,0.0373999999999992,0.018));
#1516=CARTESIAN_POINT('',(-0.0509999999999988,0.0373999999999992,0.0145));
#1517=CARTESIAN_POINT('',(0.0431050000000012,0.0373999999999992,0.0145));
#1518=CARTESIAN_POINT('',(0.0431050000000012,0.0373999999999992,0.018));
#1519=CARTESIAN_POINT('',(0.0431050000000012,0.0373999999999992,0.018));
#1520=CARTESIAN_POINT('',(-0.0509999999999988,0.0373999999999992,0.018));
#1521=CARTESIAN_POINT('',(0.0431050000000012,0.0209537110252302,0.018));
#1522=CARTESIAN_POINT('',(0.0431050000000012,0.0209537110252302,0.0145));
#1523=CARTESIAN_POINT('',(0.0431050000000012,0.00450742205046117,0.0145));
#1524=CARTESIAN_POINT('',(0.0431050000000012,0.00450742205046117,0.018));
#1525=CARTESIAN_POINT('',(0.0431050000000012,0.00450742205046117,0.018));
#1526=CARTESIAN_POINT('',(0.0431050000000012,0.0209537110252302,0.018));
#1527=CARTESIAN_POINT('',(0.0421050000000012,0.00450742205046117,0.018));
#1528=CARTESIAN_POINT('',(0.0421050000000012,0.00450742205046117,0.0145));
#1529=CARTESIAN_POINT('',(0.0421050000000012,0.00350742205046117,0.0145));
#1530=CARTESIAN_POINT('',(0.0421050000000012,0.00350742205046117,0.018));
#1531=CARTESIAN_POINT('',(0.0421050000000012,0.00350742205046117,0.018));
#1532=CARTESIAN_POINT('',(0.0421050000000012,0.00450742205046117,0.018));
#1533=CARTESIAN_POINT('',(0.0310921479591733,0.00350742205046117,0.018));
#1534=CARTESIAN_POINT('',(0.0310921479591733,0.00350742205046117,0.0145));
#1535=CARTESIAN_POINT('',(0.0200792959183454,0.00350742205046117,0.0145));
#1536=CARTESIAN_POINT('',(0.0200792959183454,0.00350742205046117,0.018));
#1537=CARTESIAN_POINT('',(0.0200792959183454,0.00350742205046117,0.018));
#1538=CARTESIAN_POINT('',(0.0310921479591733,0.00350742205046117,0.018));
#1539=CARTESIAN_POINT('',(0.0200792959183454,0.00450742205046117,0.018));
#1540=CARTESIAN_POINT('',(0.0200792959183454,0.00450742205046117,0.0145));
#1541=CARTESIAN_POINT('',(0.0190792959183454,0.00450742205046117,0.0145));
#1542=CARTESIAN_POINT('',(0.0190792959183454,0.00450742205046117,0.018));
#1543=CARTESIAN_POINT('',(0.0190792959183454,0.00450742205046117,0.018));
#1544=CARTESIAN_POINT('',(0.0200792959183454,0.00450742205046117,0.018));
#1545=CARTESIAN_POINT('',(0.0229956000000012,-9.56000000008001E-5,0.018));
#1546=CARTESIAN_POINT('',(0.0229956000000012,-9.56000000008001E-5,0.0145));
#1547=CARTESIAN_POINT('',(0.0229956000000012,0.000894999999999201,0.0145));
#1548=CARTESIAN_POINT('',(0.0220050000000012,-9.56000000008001E-5,0.0145));
#1549=CARTESIAN_POINT('',(0.0229956000000012,0.000894999999999201,0.018));
#1550=CARTESIAN_POINT('',(0.0229956000000012,0.000894999999999201,0.018));
#1551=CARTESIAN_POINT('',(0.0229956000000012,-9.56000000008001E-5,0.018));
#1552=CARTESIAN_POINT('',(0.0220050000000012,-9.56000000008001E-5,0.018));
#1553=CARTESIAN_POINT('',(0.0220050000000012,-9.56000000008001E-5,0.018));
#1554=CARTESIAN_POINT('',(0.0232503000000012,0.000894999999999201,0.018));
#1555=CARTESIAN_POINT('',(0.0232503000000012,0.000894999999999201,0.0145));
#1556=CARTESIAN_POINT('',(0.0370144000000012,0.0008949999999992,0.0145));
#1557=CARTESIAN_POINT('',(0.0370144000000012,0.0008949999999992,0.018));
#1558=CARTESIAN_POINT('',(0.0370144000000012,0.0008949999999992,0.018));
#1559=CARTESIAN_POINT('',(0.0232503000000012,0.000894999999999201,0.018));
#1560=CARTESIAN_POINT('',(0.0370144000000012,-9.56000000008001E-5,0.018));
#1561=CARTESIAN_POINT('',(0.0370144000000012,-9.56000000008001E-5,0.0145));
#1562=CARTESIAN_POINT('',(0.0380050000000012,-9.56000000008001E-5,0.0145));
#1563=CARTESIAN_POINT('',(0.0380050000000012,-9.56000000008001E-5,0.018));
#1564=CARTESIAN_POINT('',(0.0380050000000012,-9.56000000008001E-5,0.018));
#1565=CARTESIAN_POINT('',(0.0370144000000012,-9.56000000008001E-5,0.018));
#1566=CARTESIAN_POINT('',(0.0380050000000012,-0.000350300000000799,0.018));
#1567=CARTESIAN_POINT('',(0.0380050000000012,-0.000350300000000799,0.0145));
#1568=CARTESIAN_POINT('',(0.0380050000000012,-0.0141144000000008,0.0145));
#1569=CARTESIAN_POINT('',(0.0380050000000012,-0.0141144000000008,0.018));
#1570=CARTESIAN_POINT('',(0.0380050000000012,-0.0141144000000008,0.018));
#1571=CARTESIAN_POINT('',(0.0380050000000012,-0.000350300000000799,0.018));
#1572=CARTESIAN_POINT('',(0.0370144000000012,-0.0141144000000008,0.018));
#1573=CARTESIAN_POINT('',(0.0370144000000012,-0.0141144000000008,0.0145));
#1574=CARTESIAN_POINT('',(0.0370144000000012,-0.0151050000000008,0.0145));
#1575=CARTESIAN_POINT('',(0.0370144000000012,-0.0151050000000008,0.018));
#1576=CARTESIAN_POINT('',(0.0370144000000012,-0.0151050000000008,0.018));
#1577=CARTESIAN_POINT('',(0.0370144000000012,-0.0141144000000008,0.018));
#1578=CARTESIAN_POINT('',(0.0367597000000012,-0.0151050000000008,0.018));
#1579=CARTESIAN_POINT('',(0.0367597000000012,-0.0151050000000008,0.0145));
#1580=CARTESIAN_POINT('',(0.0229956000000012,-0.0151050000000008,0.0145));
#1581=CARTESIAN_POINT('',(0.0229956000000012,-0.0151050000000008,0.018));
#1582=CARTESIAN_POINT('',(0.0229956000000012,-0.0151050000000008,0.018));
#1583=CARTESIAN_POINT('',(0.0367597000000012,-0.0151050000000008,0.018));
#1584=CARTESIAN_POINT('',(0.0229956000000012,-0.0141144000000008,0.018));
#1585=CARTESIAN_POINT('',(0.0229956000000012,-0.0141144000000008,0.0145));
#1586=CARTESIAN_POINT('',(0.0220050000000012,-0.0141144000000008,0.0145));
#1587=CARTESIAN_POINT('',(0.0220050000000012,-0.0141144000000008,0.018));
#1588=CARTESIAN_POINT('',(0.0220050000000012,-0.0141144000000008,0.018));
#1589=CARTESIAN_POINT('',(0.0229956000000012,-0.0141144000000008,0.018));
#1590=CARTESIAN_POINT('',(-0.0212093999999988,0.0231993999999992,0.018));
#1591=CARTESIAN_POINT('',(-0.0212093999999988,0.0231993999999992,0.0145));
#1592=CARTESIAN_POINT('',(-0.0212093997923666,0.024189977911463,0.0145));
#1593=CARTESIAN_POINT('',(-0.0221999779114626,0.023199399792367,0.0145));
#1594=CARTESIAN_POINT('',(-0.0212093997923666,0.024189977911463,0.018));
#1595=CARTESIAN_POINT('',(-0.0212093997923666,0.024189977911463,0.018));
#1596=CARTESIAN_POINT('',(-0.0212093999999988,0.0231993999999992,0.018));
#1597=CARTESIAN_POINT('',(-0.0221999779114626,0.023199399792367,0.018));
#1598=CARTESIAN_POINT('',(-0.0221999779114626,0.023199399792367,0.018));
#1599=CARTESIAN_POINT('',(-0.0211999999999988,0.0231899999999992,0.018));
#1600=CARTESIAN_POINT('',(-0.0211999999999988,0.0231899999999992,0.0145));
#1601=CARTESIAN_POINT('',(-0.0211999999999988,0.0241899999999992,0.0145));
#1602=CARTESIAN_POINT('',(-0.0211999999999988,0.0241899999999992,0.018));
#1603=CARTESIAN_POINT('',(-0.0211999999999988,0.0241899999999992,0.018));
#1604=CARTESIAN_POINT('',(-0.0211999999999988,0.0231899999999992,0.018));
#1605=CARTESIAN_POINT('',(-0.0108499999999988,0.0241899999999992,0.018));
#1606=CARTESIAN_POINT('',(-0.0108499999999988,0.0241899999999992,0.0145));
#1607=CARTESIAN_POINT('',(0.00180000000000119,0.0241899999999992,0.0145));
#1608=CARTESIAN_POINT('',(0.00180000000000119,0.0241899999999992,0.018));
#1609=CARTESIAN_POINT('',(0.00180000000000119,0.0241899999999992,0.018));
#1610=CARTESIAN_POINT('',(-0.0108499999999988,0.0241899999999992,0.018));
#1611=CARTESIAN_POINT('',(0.00180000000000119,0.0231899999999992,0.018));
#1612=CARTESIAN_POINT('',(0.00180000000000119,0.0231899999999992,0.0145));
#1613=CARTESIAN_POINT('',(0.00180939979236896,0.024189977911463,0.0145));
#1614=CARTESIAN_POINT('',(0.00180939979236896,0.024189977911463,0.018));
#1615=CARTESIAN_POINT('',(0.00180939979236896,0.024189977911463,0.018));
#1616=CARTESIAN_POINT('',(0.00180000000000119,0.0231899999999992,0.018));
#1617=CARTESIAN_POINT('',(0.00180940000000119,0.0231993999999992,0.018));
#1618=CARTESIAN_POINT('',(0.00180940000000119,0.0231993999999992,0.0145));
#1619=CARTESIAN_POINT('',(0.00279997791146499,0.023199399792367,0.0145));
#1620=CARTESIAN_POINT('',(0.00279997791146499,0.023199399792367,0.018));
#1621=CARTESIAN_POINT('',(0.00279997791146499,0.023199399792367,0.018));
#1622=CARTESIAN_POINT('',(0.00180940000000119,0.0231993999999992,0.018));
#1623=CARTESIAN_POINT('',(0.00180000000000119,0.0231899999999992,0.018));
#1624=CARTESIAN_POINT('',(0.00180000000000119,0.0231899999999992,0.0145));
#1625=CARTESIAN_POINT('',(0.0028000000000012,0.0231899999999992,0.0145));
#1626=CARTESIAN_POINT('',(0.0028000000000012,0.0231899999999992,0.018));
#1627=CARTESIAN_POINT('',(0.0028000000000012,0.0231899999999992,0.018));
#1628=CARTESIAN_POINT('',(0.00180000000000119,0.0231899999999992,0.018));
#1629=CARTESIAN_POINT('',(0.0028000000000012,0.0118449999999992,0.018));
#1630=CARTESIAN_POINT('',(0.0028000000000012,0.0118449999999992,0.0145));
#1631=CARTESIAN_POINT('',(0.0028000000000012,0.0171899999999992,0.0145));
#1632=CARTESIAN_POINT('',(0.0028000000000012,0.0171899999999992,0.018));
#1633=CARTESIAN_POINT('',(0.0028000000000012,0.0171899999999992,0.018));
#1634=CARTESIAN_POINT('',(0.0028000000000012,0.0118449999999992,0.018));
#1635=CARTESIAN_POINT('',(0.00180000000000119,0.0171899999999992,0.018));
#1636=CARTESIAN_POINT('',(0.00180000000000119,0.0171899999999992,0.0145));
#1637=CARTESIAN_POINT('',(0.00279997791146499,0.0171806002076315,0.0145));
#1638=CARTESIAN_POINT('',(0.00279997791146499,0.0171806002076315,0.018));
#1639=CARTESIAN_POINT('',(0.00279997791146499,0.0171806002076315,0.018));
#1640=CARTESIAN_POINT('',(0.00180000000000119,0.0171899999999992,0.018));
#1641=CARTESIAN_POINT('',(0.0018094000000012,0.0171805999999992,0.018));
#1642=CARTESIAN_POINT('',(0.0018094000000012,0.0171805999999992,0.0145));
#1643=CARTESIAN_POINT('',(0.00180939979236896,0.0161900220885354,0.0145));
#1644=CARTESIAN_POINT('',(0.00180939979236896,0.0161900220885354,0.018));
#1645=CARTESIAN_POINT('',(0.00180939979236896,0.0161900220885354,0.018));
#1646=CARTESIAN_POINT('',(0.0018094000000012,0.0171805999999992,0.018));
#1647=CARTESIAN_POINT('',(0.00180000000000119,0.0171899999999992,0.018));
#1648=CARTESIAN_POINT('',(0.00180000000000119,0.0171899999999992,0.0145));
#1649=CARTESIAN_POINT('',(0.00180000000000119,0.0161899999999992,0.0145));
#1650=CARTESIAN_POINT('',(0.00180000000000119,0.0161899999999992,0.018));
#1651=CARTESIAN_POINT('',(0.00180000000000119,0.0161899999999992,0.018));
#1652=CARTESIAN_POINT('',(0.00180000000000119,0.0171899999999992,0.018));
#1653=CARTESIAN_POINT('',(0.0011500000000012,0.0161899999999992,0.018));
#1654=CARTESIAN_POINT('',(0.0011500000000012,0.0161899999999992,0.0145));
#1655=CARTESIAN_POINT('',(-0.0211999999999988,0.0161899999999992,0.0145));
#1656=CARTESIAN_POINT('',(-0.0211999999999988,0.0161899999999992,0.018));
#1657=CARTESIAN_POINT('',(-0.0211999999999988,0.0161899999999992,0.018));
#1658=CARTESIAN_POINT('',(0.0011500000000012,0.0161899999999992,0.018));
#1659=CARTESIAN_POINT('',(-0.0211999999999988,0.0171899999999992,0.018));
#1660=CARTESIAN_POINT('',(-0.0211999999999988,0.0171899999999992,0.0145));
#1661=CARTESIAN_POINT('',(-0.0212093997923666,0.0161900220885354,0.0145));
#1662=CARTESIAN_POINT('',(-0.0212093997923666,0.0161900220885354,0.018));
#1663=CARTESIAN_POINT('',(-0.0212093997923666,0.0161900220885354,0.018));
#1664=CARTESIAN_POINT('',(-0.0211999999999988,0.0171899999999992,0.018));
#1665=CARTESIAN_POINT('',(-0.0212093999999988,0.0171805999999992,0.018));
#1666=CARTESIAN_POINT('',(-0.0212093999999988,0.0171805999999992,0.0145));
#1667=CARTESIAN_POINT('',(-0.0221999779114626,0.0171806002076315,0.0145));
#1668=CARTESIAN_POINT('',(-0.0221999779114626,0.0171806002076315,0.018));
#1669=CARTESIAN_POINT('',(-0.0221999779114626,0.0171806002076315,0.018));
#1670=CARTESIAN_POINT('',(-0.0212093999999988,0.0171805999999992,0.018));
#1671=CARTESIAN_POINT('',(-0.0211999999999988,0.0171899999999992,0.018));
#1672=CARTESIAN_POINT('',(-0.0211999999999988,0.0171899999999992,0.0145));
#1673=CARTESIAN_POINT('',(-0.0221999999999988,0.0171899999999992,0.0145));
#1674=CARTESIAN_POINT('',(-0.0221999999999988,0.0171899999999992,0.018));
#1675=CARTESIAN_POINT('',(-0.0221999999999988,0.0171899999999992,0.018));
#1676=CARTESIAN_POINT('',(-0.0211999999999988,0.0171899999999992,0.018));
#1677=CARTESIAN_POINT('',(-0.0221999999999988,0.0083449999999992,0.018));
#1678=CARTESIAN_POINT('',(-0.0221999999999988,0.0083449999999992,0.0145));
#1679=CARTESIAN_POINT('',(-0.0221999999999988,0.0231899999999992,0.0145));
#1680=CARTESIAN_POINT('',(-0.0221999999999988,0.0231899999999992,0.018));
#1681=CARTESIAN_POINT('',(-0.0221999999999988,0.0231899999999992,0.018));
#1682=CARTESIAN_POINT('',(-0.0221999999999988,0.0083449999999992,0.018));
#1683=CARTESIAN_POINT('',(0.0084150000000012,-0.0266850000000008,0.018));
#1684=CARTESIAN_POINT('',(0.0084150000000012,-0.0266850000000008,0.0145));
#1685=CARTESIAN_POINT('',(-0.0384149999999988,-0.0266850000000008,0.0145));
#1686=CARTESIAN_POINT('',(0.0164921901806258,-0.0266850000000008,0.0145));
#1687=CARTESIAN_POINT('',(-0.0384149999999988,-0.0266850000000008,0.018));
#1688=CARTESIAN_POINT('',(-0.0384149999999988,-0.0266850000000008,0.018));
#1689=CARTESIAN_POINT('',(0.0084150000000012,-0.0266850000000008,0.018));
#1690=CARTESIAN_POINT('',(0.0164921901806258,-0.0266850000000008,0.018));
#1691=CARTESIAN_POINT('',(0.0164921901806258,-0.0266850000000008,0.018));
#1692=CARTESIAN_POINT('',(-0.0384149999999988,-0.0254150000000008,0.018));
#1693=CARTESIAN_POINT('',(-0.0384149999999988,-0.0254150000000008,0.0145));
#1694=CARTESIAN_POINT('',(-0.0396849999999988,-0.0254150000000008,0.0145));
#1695=CARTESIAN_POINT('',(-0.0396849999999988,-0.0254150000000008,0.018));
#1696=CARTESIAN_POINT('',(-0.0396849999999988,-0.0254150000000008,0.018));
#1697=CARTESIAN_POINT('',(-0.0384149999999988,-0.0254150000000008,0.018));
#1698=CARTESIAN_POINT('',(-0.0396849999999988,-0.0150250000000008,0.018));
#1699=CARTESIAN_POINT('',(-0.0396849999999988,-0.0150250000000008,0.0145));
#1700=CARTESIAN_POINT('',(-0.0396849999999988,0.0110949999999992,0.0145));
#1701=CARTESIAN_POINT('',(-0.0396849999999988,0.0110949999999992,0.018));
#1702=CARTESIAN_POINT('',(-0.0396849999999988,0.0110949999999992,0.018));
#1703=CARTESIAN_POINT('',(-0.0396849999999988,-0.0150250000000008,0.018));
#1704=CARTESIAN_POINT('',(-0.0384149999999988,0.0110949999999992,0.018));
#1705=CARTESIAN_POINT('',(-0.0384149999999988,0.0110949999999992,0.0145));
#1706=CARTESIAN_POINT('',(-0.0384149999999988,0.0123649999999992,0.0145));
#1707=CARTESIAN_POINT('',(-0.0384149999999988,0.0123649999999992,0.018));
#1708=CARTESIAN_POINT('',(-0.0384149999999988,0.0123649999999992,0.018));
#1709=CARTESIAN_POINT('',(-0.0384149999999988,0.0110949999999992,0.018));
#1710=CARTESIAN_POINT('',(-0.0305499999999988,0.0123649999999992,0.018));
#1711=CARTESIAN_POINT('',(-0.0305499999999988,0.0123649999999992,0.0145));
#1712=CARTESIAN_POINT('',(0.0171450000000012,0.0123649999999992,0.0145));
#1713=CARTESIAN_POINT('',(0.0171450000000012,0.0123649999999992,0.018));
#1714=CARTESIAN_POINT('',(0.0171450000000012,0.0123649999999992,0.018));
#1715=CARTESIAN_POINT('',(-0.0305499999999988,0.0123649999999992,0.018));
#1716=CARTESIAN_POINT('',(0.0164921901806258,0.0112756243348923,0.018));
#1717=CARTESIAN_POINT('',(0.0164921901806258,0.0112756243348923,0.0145));
#1718=CARTESIAN_POINT('',(0.0177621901806258,0.0112756243348923,0.0145));
#1719=CARTESIAN_POINT('',(0.0177621901806258,0.0112756243348923,0.018));
#1720=CARTESIAN_POINT('',(0.0177621901806258,0.0112756243348923,0.018));
#1721=CARTESIAN_POINT('',(0.0164921901806258,0.0112756243348923,0.018));
#1722=CARTESIAN_POINT('',(0.0177621901806258,-0.00706968783255423,0.018));
#1723=CARTESIAN_POINT('',(0.0177621901806258,-0.00706968783255423,0.0145));
#1724=CARTESIAN_POINT('',(0.0177621901806258,-0.0254150000000008,0.0145));
#1725=CARTESIAN_POINT('',(0.0177621901806258,-0.0254150000000008,0.018));
#1726=CARTESIAN_POINT('',(0.0177621901806258,-0.0254150000000008,0.018));
#1727=CARTESIAN_POINT('',(0.0177621901806258,-0.00706968783255423,0.018));
#1728=CARTESIAN_POINT('',(0.0460000000000012,0.0324000000693455,0.018));
#1729=CARTESIAN_POINT('',(0.0460000000000012,0.0324000000693455,0.018));
#1730=CARTESIAN_POINT('',(0.0477500000000012,0.0324000000693455,0.018));
#1731=CARTESIAN_POINT('',(0.0460000000000012,0.0324000000693455,0.0145));
#1732=CARTESIAN_POINT('',(0.0477500000000012,0.0324000000693455,0.0145));
#1733=CARTESIAN_POINT('',(0.0460000000000012,-0.0324000000000008,0.018));
#1734=CARTESIAN_POINT('',(0.0460000000000012,-0.0324000000000008,0.018));
#1735=CARTESIAN_POINT('',(0.0477500000000012,-0.0324000000000008,0.018));
#1736=CARTESIAN_POINT('',(0.0460000000000012,-0.0324000000000008,0.0145));
#1737=CARTESIAN_POINT('',(0.0477500000000012,-0.0324000000000008,0.0145));
#1738=CARTESIAN_POINT('',(-0.0460000003225065,-0.0324000000000008,0.018));
#1739=CARTESIAN_POINT('',(-0.0460000003225065,-0.0324000000000008,0.018));
#1740=CARTESIAN_POINT('',(-0.0442500003225065,-0.0324000000000008,0.018));
#1741=CARTESIAN_POINT('',(-0.0460000003225065,-0.0324000000000008,0.0145));
#1742=CARTESIAN_POINT('',(-0.0442500003225065,-0.0324000000000008,0.0145));
#1743=CARTESIAN_POINT('',(-0.0460000003225065,0.0324000000693455,0.018));
#1744=CARTESIAN_POINT('',(-0.0460000003225065,0.0324000000693455,0.018));
#1745=CARTESIAN_POINT('',(-0.0442500003225065,0.0324000000693455,0.018));
#1746=CARTESIAN_POINT('',(-0.0460000003225065,0.0324000000693455,0.0145));
#1747=CARTESIAN_POINT('',(-0.0442500003225065,0.0324000000693455,0.0145));
#1748=CARTESIAN_POINT('',(0.0220050000000012,-0.0138597000000008,0.018));
#1749=CARTESIAN_POINT('',(0.0220050000000012,-0.0138597000000008,0.0145));
#1750=CARTESIAN_POINT('',(0.0220050000000012,-0.0138597000000008,0.018));
#1751=CARTESIAN_POINT('',(-0.0211999999999988,0.0231899999999992,0.018));
#1752=CARTESIAN_POINT('',(-0.0211999999999988,0.0231899999999992,0.0145));
#1753=CARTESIAN_POINT('',(-0.0211999999999988,0.0231899999999992,0.018));
#1754=CARTESIAN_POINT('',(0.0164921901806258,-0.0254150000000008,0.018));
#1755=CARTESIAN_POINT('',(0.0164921901806258,-0.0254150000000008,0.0145));
#1756=CARTESIAN_POINT('',(0.0164921901806258,-0.0254150000000008,0.018));
#1757=CARTESIAN_POINT('',(0.0190792959183454,0.0209537110252302,0.018));
#1758=CARTESIAN_POINT('',(0.0190792959183454,0.0209537110252302,0.0145));
#1759=CARTESIAN_POINT('',(0.0190792959183454,0.0209537110252302,0.018));
#1760=CARTESIAN_POINT('',(1.23750000119438E-6,-7.97972798949331E-16,0.018));
#1761=CARTESIAN_POINT('',(1.23750000119438E-6,-7.97972798949331E-16,0.0145));
#1762=MECHANICAL_DESIGN_GEOMETRIC_PRESENTATION_REPRESENTATION('',(#1027),
#1763);
#1763=(
GEOMETRIC_REPRESENTATION_CONTEXT(3)
GLOBAL_UNCERTAINTY_ASSIGNED_CONTEXT((#1764))
GLOBAL_UNIT_ASSIGNED_CONTEXT((#1767,#1766,#1765))
REPRESENTATION_CONTEXT('Part 107','TOP_LEVEL_ASSEMBLY_PART')
);
#1764=UNCERTAINTY_MEASURE_WITH_UNIT(LENGTH_MEASURE(2.2E-7),#1767,
'DISTANCE_ACCURACY_VALUE','Maximum Tolerance applied to model');
#1765=(
NAMED_UNIT(*)
SI_UNIT($,.STERADIAN.)
SOLID_ANGLE_UNIT()
);
#1766=(
NAMED_UNIT(*)
PLANE_ANGLE_UNIT()
SI_UNIT($,.RADIAN.)
);
#1767=(
LENGTH_UNIT()
NAMED_UNIT(*)
SI_UNIT($,.METRE.)
);
#1768=PRODUCT_DEFINITION_SHAPE('','',#1769);
#1769=PRODUCT_DEFINITION('','',#1771,#1770);
#1770=PRODUCT_DEFINITION_CONTEXT('',#1777,'design');
#1771=PRODUCT_DEFINITION_FORMATION_WITH_SPECIFIED_SOURCE('','',#1773,
 .NOT_KNOWN.);
#1772=PRODUCT_RELATED_PRODUCT_CATEGORY('','',(#1773));
#1773=PRODUCT('Part 107','Part 107','Part 107',(#1775));
#1774=PRODUCT_CATEGORY('','');
#1775=PRODUCT_CONTEXT('',#1777,'mechanical');
#1776=APPLICATION_PROTOCOL_DEFINITION('international standard',
'ap242_managed_model_based_3d_engineering',2020,#1777);
#1777=APPLICATION_CONTEXT('managed model based 3d engineering');
ENDSEC;
END-ISO-10303-21;
